<?xml version="1.0" encoding="UTF-8" standalone="no"?>
<svg
   xmlns:dc="http://purl.org/dc/elements/1.1/"
   xmlns:cc="http://creativecommons.org/ns#"
   xmlns:rdf="http://www.w3.org/1999/02/22-rdf-syntax-ns#"
   xmlns:svg="http://www.w3.org/2000/svg"
   xmlns="http://www.w3.org/2000/svg"
   viewBox="0 0 366.13333 44.413334"
   height="44.413334"
   width="366.13333"
   xml:space="preserve"
   id="svg2"
   version="1.1"><metadata
     id="metadata8"><rdf:RDF><cc:Work
         rdf:about=""><dc:format>image/svg+xml</dc:format><dc:type
           rdf:resource="http://purl.org/dc/dcmitype/StillImage" /></cc:Work></rdf:RDF></metadata><defs
     id="defs6" /><g
     transform="matrix(1.3333333,0,0,-1.3333333,0,44.413333)"
     id="g10"><g
       transform="scale(0.1)"
       id="g12"><path
         id="path14"
         style="fill:#59c134;fill-opacity:1;fill-rule:nonzero;stroke:none"
         d="M 0.46875,0 V 258.125 H 41.5508 L 223.516,105.984 c 6.203,-5.046 11.668,-9.8121 16.406,-14.2848 4.726,-4.4804 9.051,-9.082 12.976,-13.7969 -0.972,14.4805 -1.621,24.7347 -1.941,30.7577 -0.332,6.028 -0.488,10.664 -0.488,13.93 v 135.535 h 53.75 L 304.219,0 H 263.125 L 73.3281,159.465 c -4.5703,4.062 -8.5703,7.723 -12,10.984 -3.4297,3.262 -6.6093,6.602 -9.5429,10.02 0.8125,-7.981 1.4179,-15.508 1.8281,-22.586 0.3984,-7.09 0.6055,-13.235 0.6055,-18.442 V 0 H 0.46875" /><path
         id="path16"
         style="fill:#59c134;fill-opacity:1;fill-rule:nonzero;stroke:none"
         d="m 435.039,0 v 258.125 h 263.75 v -43.75 H 495.039 V 156.25 H 614.414 V 112.5 H 495.039 V 48.75 h 206.25 V 0 h -266.25" /><path
         id="path18"
         style="fill:#59c134;fill-opacity:1;fill-rule:evenodd;stroke:none"
         d="M 835.152,333.105 H 0 V 293.398 H 788.738 V 0.0664063 h 46.407 L 835.152,333.105" /><path
         id="path20"
         style="fill:#59c134;fill-opacity:1;fill-rule:evenodd;stroke:none"
         d="m 1442.35,333.105 h 59.93 v -39.707 h -59.93 v 39.707" /><path
         id="path22"
         style="fill:#64696e;fill-opacity:1;fill-rule:nonzero;stroke:none"
         d="m 1002.38,0 v 258.125 h 60 v -100 h 187.5 v 100 h 60.62 V 0 h -60.62 v 111.25 h -187.5 V 0 h -60" /><path
         id="path24"
         style="fill:#64696e;fill-opacity:1;fill-rule:nonzero;stroke:none"
         d="m 1442.31,0 v 258.125 h 60 V 0 h -60" /><path
         id="path26"
         style="fill:#64696e;fill-opacity:1;fill-rule:nonzero;stroke:none"
         d="m 1634.2,0 v 258.125 h 41.09 l 181.96,-152.141 c 6.2,-5.046 11.67,-9.8121 16.41,-14.2848 4.72,-4.4804 9.05,-9.082 12.98,-13.7969 -0.98,14.4805 -1.62,24.7347 -1.95,30.7577 -0.33,6.028 -0.49,10.664 -0.49,13.93 v 135.535 h 53.75 V 0 h -41.09 l -189.79,159.465 c -4.57,4.062 -8.58,7.723 -12.01,10.984 -3.42,3.262 -6.61,6.602 -9.54,10.02 0.81,-7.981 1.42,-15.508 1.83,-22.586 0.4,-7.09 0.6,-13.235 0.6,-18.442 V 0 h -53.75" /><path
         id="path28"
         style="fill:#64696e;fill-opacity:1;fill-rule:nonzero;stroke:none"
         d="m 2068.77,0 v 258.125 h 60.63 V 150.43 l 143.08,107.695 h 86.92 L 2188.49,136.516 2380.65,0 h -96.54 L 2129.4,113.555 V 0 h -60.63" /><path
         id="path30"
         style="fill:#64696e;fill-opacity:1;fill-rule:nonzero;stroke:none"
         d="M 2689.5,213.125 H 2520.75 V 157.5 h 160.7 c 25.17,0 42.18,-4.309 51.03,-12.91 8.84,-8.613 13.27,-24.61 13.27,-47.9962 V 61.2383 c 0,-23.5117 -4.43,-39.6055 -13.27,-48.2578 C 2723.63,4.32422 2706.62,0 2681.45,0 h -159.24 c -25.28,0 -42.37,4.32422 -51.26,12.9805 -8.88,8.6523 -13.33,24.7461 -13.33,48.2578 v 7.1133 l 53.13,11.0234 V 48.75 h 181.87 v 58.75 h -160.41 c -25.07,0 -41.99,4.309 -50.78,12.941 -8.79,8.622 -13.18,24.657 -13.18,48.094 v 28.684 c 0,23.386 4.39,39.383 13.18,47.996 8.79,8.601 25.71,12.91 50.78,12.91 h 146.31 c 24.3,0 41.05,-4.141 50.27,-12.422 9.22,-8.281 13.83,-22.976 13.83,-44.082 v -5.391 l -53.12,-12.48 v 29.375" /><path
         id="path32"
         style="fill:#64696e;fill-opacity:1;fill-rule:evenodd;stroke:none"
         d="M 1371.75,333.105 H 855.629 L 855.539,0.0664063 h 46.402 V 293.398 h 469.809 v 39.707" /><path
         id="path34"
         style="fill:#64696e;fill-opacity:1;fill-rule:evenodd;stroke:none"
         d="M 1565.45,333.105 H 2745.97 V 293.398 H 1565.45 v 39.707" /></g></g></svg>
