<?xml version="1.0" encoding="utf-8"?>
<!-- Generator: Adobe Illustrator 23.0.0, SVG Export Plug-In . SVG Version: 6.00 Build 0)  -->
<svg version="1.1" id="Ebene_1" xmlns="http://www.w3.org/2000/svg" xmlns:xlink="http://www.w3.org/1999/xlink" x="0px" y="0px"
	 viewBox="0 0 358.5 106.9" style="enable-background:new 0 0 358.5 106.9;" xml:space="preserve">
<style type="text/css">
	.st0{fill:#191918;}
	.st1{fill:#191917;}
	.st2{fill:url(#SVGID_1_);}
	.st3{fill:#1A1A18;}
	.st4{fill:url(#SVGID_2_);}
	.st5{fill:url(#SVGID_3_);}
	.st6{fill:url(#SVGID_4_);}
	.st7{fill:url(#SVGID_5_);}
	.st8{clip-path:url(#SVGID_7_);}
	.st9{fill:url(#SVGID_8_);}
	.st10{fill:#D0D0D0;}
	.st11{fill-rule:evenodd;clip-rule:evenodd;fill:url(#path1321_2_);}
	.st12{fill:#FFFFFF;}
	.st13{fill-rule:evenodd;clip-rule:evenodd;fill:url(#path1323_2_);}
	.st14{fill-rule:evenodd;clip-rule:evenodd;fill:url(#path4547_2_);}
</style>
<title>RZ_Datagerry_RGB</title>
<path class="st0" d="M34.9,84.8c0-2.9-0.4-5.7-1.3-8.4c-0.8-2.5-2.1-4.9-3.8-6.9c-1.8-2-4-3.6-6.4-4.7c-2.8-1.2-5.9-1.8-9-1.7H0
	v43.5h14.3c2.9,0,5.8-0.5,8.5-1.6c2.5-1,4.7-2.5,6.5-4.4c1.8-2,3.2-4.3,4.1-6.9C34.4,90.9,34.9,87.9,34.9,84.8z M14.3,104.2H2.6
	V65.5h11.7c2.6,0,5.2,0.4,7.6,1.4c2.1,0.9,4.1,2.3,5.6,4c1.6,1.8,2.7,3.8,3.5,6.1c0.8,2.5,1.2,5.1,1.2,7.7c0,2.6-0.4,5.2-1.1,7.7
	c-0.7,2.3-1.9,4.4-3.4,6.2c-1.6,1.7-3.5,3.1-5.6,4C19.6,103.7,17,104.2,14.3,104.2z"/>
<path class="st0" d="M51.8,63.1L33,106.6h2.9l6.4-14.8h21.3l6.4,14.8h2.8L54,63.1H51.8z M62.6,89.5H43l9.8-22.8L62.6,89.5z"/>
<polygon class="st0" points="101.2,63.1 66.3,63.1 66.3,65.5 82.4,65.5 82.4,106.6 85,106.6 85,65.5 101.2,65.5 "/>
<path class="st0" d="M115.6,63.1h-2.1l-18.8,43.5h2.9l6.4-14.9h21.3l6.4,14.8h2.8L115.6,63.1z M124.3,89.5h-19.5l9.8-22.8
	L124.3,89.5z"/>
<path class="st1" d="M182.4,91.4h8.4v1c-3,3.5-6.5,5.2-10.2,5.2c-1.6,0-3.1-0.3-4.5-0.9c-1.3-0.6-2.5-1.5-3.5-2.6
	c-1-1.2-1.8-2.5-2.3-4c-0.6-1.6-0.8-3.3-0.8-5.1c0-1.7,0.2-3.4,0.8-5c0.5-1.5,1.2-2.9,2.2-4.1c0.9-1.1,2.1-2.1,3.4-2.7
	c1.4-0.7,2.9-1,4.4-1c2.1,0,4.1,0.5,5.8,1.6c1.8,1,3.2,2.6,4.1,4.4l0.1,0.3l7.8-5.9l-0.1-0.2c-1.5-3-3.9-5.4-6.8-7
	c-6-3.1-13-3.4-19.2-0.8c-8,3.4-13.2,11.3-13.1,20.1c0,3.1,0.5,6.2,1.6,9.1c1,2.6,2.6,5,4.5,7.1c1.9,2,4.2,3.5,6.7,4.6
	c2.6,1.1,5.3,1.6,8.1,1.6c4.1,0,8.1-1.5,11.1-4.2v3.9h8.7v-23h-17.1V91.4z"/>
<polygon class="st1" points="215.9,88.8 232.9,88.8 232.9,80.2 215.9,80.2 215.9,72.3 235.7,72.3 235.7,63.1 205.5,63.1
	205.5,106.6 236.3,106.6 236.3,97.4 215.9,97.4 "/>
<path class="st1" d="M271.6,88.3c0.9-0.9,1.6-1.9,2.3-3c0.6-1.1,1.1-2.3,1.4-3.5c0.3-1.3,0.5-2.6,0.5-3.9c0-1.8-0.4-3.7-1.1-5.4
	c-0.7-1.7-1.7-3.4-3-4.7c-1.3-1.4-2.8-2.6-4.5-3.4c-1.8-0.9-3.7-1.3-5.7-1.3h-19.6v43.5h10.4V92.8h6.1l8.2,13.8l0.1,0.1h11.8
	l-9.5-16.2C269.8,89.9,270.8,89.2,271.6,88.3z M252.2,72.3h8.5c1.2,0,2.3,0.6,3,1.5c1,1.1,1.5,2.6,1.4,4.1c0.1,1.5-0.4,2.9-1.2,4.1
	c-0.6,1-1.7,1.5-2.8,1.6h-8.8L252.2,72.3z"/>
<path class="st1" d="M312.2,88.3c0.9-0.9,1.6-1.9,2.3-3c0.6-1.1,1.1-2.3,1.4-3.5c0.3-1.3,0.5-2.6,0.5-3.9c0-1.8-0.4-3.7-1.1-5.4
	c-0.7-1.7-1.7-3.4-3-4.7c-1.3-1.4-2.8-2.6-4.5-3.4c-1.8-0.9-3.7-1.3-5.7-1.3h-19.6v43.5h10.4V92.8h6.1l8.2,13.8l0.1,0.1H319
	l-9.5-16.2C310.4,89.9,311.4,89.2,312.2,88.3z M292.8,72.3h8.5c1.2,0,2.3,0.6,3,1.5c1,1.1,1.5,2.6,1.4,4.1c0.1,1.5-0.4,2.9-1.2,4.1
	c-0.6,1-1.7,1.5-2.8,1.6h-8.8L292.8,72.3z"/>
<polygon class="st1" points="347,63.1 337.8,82.5 328.7,63.1 317.3,63.1 332.6,91.7 332.6,106.6 343,106.6 343,91.8 358.5,63.1 "/>
<path class="st1" d="M155,28c0-4.1-3.3-7.4-7.4-7.4V28H155z"/>
<linearGradient id="SVGID_1_" gradientUnits="userSpaceOnUse" x1="290.8208" y1="60.2092" x2="237.1108" y2="7.8392" gradientTransform="matrix(1 0 0 -1 -119.04 90.19)">
	<stop  offset="0" style="stop-color:#FBBA00"/>
	<stop  offset="1" style="stop-color:#E94C15"/>
</linearGradient>
<path class="st2" d="M147.6,26.9v26.9h26.9C174.6,39,162.5,26.9,147.6,26.9z"/>
<circle class="st3" cx="163.2" cy="42.3" r="2"/>
<linearGradient id="SVGID_2_" gradientUnits="userSpaceOnUse" x1="297.7195" y1="53.1406" x2="244.0094" y2="0.7606" gradientTransform="matrix(1 0 0 -1 -119.04 90.19)">
	<stop  offset="0" style="stop-color:#FBBA00"/>
	<stop  offset="1" style="stop-color:#E94C15"/>
</linearGradient>
<path class="st4" d="M174.6,53.9h-26.9v26.9C147.6,65.9,159.7,53.9,174.6,53.9z"/>
<linearGradient id="SVGID_3_" gradientUnits="userSpaceOnUse" x1="291.1489" y1="59.8711" x2="237.4489" y2="7.4911" gradientTransform="matrix(1 0 0 -1 -119.04 90.19)">
	<stop  offset="0" style="stop-color:#FBBA00"/>
	<stop  offset="1" style="stop-color:#E94C15"/>
</linearGradient>
<path class="st5" d="M120.7,53.9c0,14.9,12.1,26.9,26.9,26.9V53.9H120.7z"/>
<linearGradient id="SVGID_4_" gradientUnits="userSpaceOnUse" x1="251.229" y1="86.3707" x2="217.189" y2="36.4907" gradientTransform="matrix(1 0 0 -1 -119.04 90.19)">
	<stop  offset="0" style="stop-color:#FBBA00"/>
	<stop  offset="1" style="stop-color:#E94C15"/>
</linearGradient>
<path class="st6" d="M93.8,26.9c0,14.9,12.1,26.9,26.9,26.9V26.9H93.8z"/>
<linearGradient id="SVGID_5_" gradientUnits="userSpaceOnUse" x1="238.6875" y1="94.9317" x2="204.6475" y2="45.0417" gradientTransform="matrix(1 0 0 -1 -119.04 90.19)">
	<stop  offset="0" style="stop-color:#FBBA00"/>
	<stop  offset="1" style="stop-color:#E94C15"/>
</linearGradient>
<path class="st7" d="M120.7,26.9c0-14.9-12-26.9-26.9-26.9c0,0,0,0,0,0v26.9H120.7z"/>
<g>
	<defs>
		<path id="SVGID_6_" d="M174.6,53.9L174.6,53.9c0-14.9-12.1-26.9-26.9-26.9v26.9l0,0v26.9C147.6,65.9,159.7,53.9,174.6,53.9
			L174.6,53.9L174.6,53.9z"/>
	</defs>
	<clipPath id="SVGID_7_">
		<use xlink:href="#SVGID_6_"  style="overflow:visible;"/>
	</clipPath>
	<g class="st8">

			<radialGradient id="SVGID_8_" cx="174.57" cy="56.13" r="11.54" gradientTransform="matrix(1 0 0 -1 0 108)" gradientUnits="userSpaceOnUse">
			<stop  offset="0" style="stop-color:#FFFFFF"/>
			<stop  offset="0.23" style="stop-color:#FFFFFF;stop-opacity:0.71"/>
			<stop  offset="0.54" style="stop-color:#FFFFFF;stop-opacity:0.33"/>
			<stop  offset="0.76" style="stop-color:#FFFFFF;stop-opacity:9.000000e-02"/>
			<stop  offset="0.87" style="stop-color:#FFFFFF;stop-opacity:0"/>
		</radialGradient>
		<circle class="st9" cx="174.6" cy="51.9" r="11.5"/>
	</g>
</g>
<circle class="st3" cx="174.6" cy="51.9" r="2"/>
<g>
	<title>christmas hat</title>
	<g>
		<title>Layer 1</title>
		<g id="layer1_1_">
			<path id="path2248_1_" class="st10" d="M137.3,50.6l-0.5-0.9l0.1,1.1l-0.8-0.9l0.3,1l-0.8-0.7l0.5,1l-1.1-0.5l0.1,0.1l-0.2-0.1
				l0.6,0.7l-0.8-0.2l0.2,0.2l-0.3-0.1l1,0.7l-1.2,0l0.9,0.4l-1,0.1l1,0.2l-1.1,0.3l1.1,0.1l-1,0.5l1.3-0.2l-0.9,0.9l0,0l1-0.4
				l-0.6,0.8l0.1,0l-0.1,0.1l1.1-0.7l-0.4,1.1l0.7-0.7l-0.2,0.9l0.5-0.7l0,0.8l0.4-0.9l0.2,1l0.2-1.2l0.6,1.2v0v0l-0.1-1l0.7,0.8
				l0-0.1l0,0l-0.3-1.2l1,0.8l-0.6-0.9l1,0.5l-0.6-0.7l0.9,0.2l-0.8-0.6l1,0.1l-1.1-0.6l1.3-0.2l-0.2,0l0.2,0l-0.9-0.2l1-0.3l-0.1,0
				l-0.3,0l-0.9-0.1l1.1-0.7l-1.1,0.2l0.8-0.8l-1.1,0.4l0.6-0.9l-0.9,0.5l0.4-0.9l-0.9,0.8l0.2-1.1l-0.1,0.2l0-0.2l-0.4,0.7l0-0.8
				l-0.1,0.2l0-0.2l-0.4,1l-0.3-1.1L137.3,50.6z"/>

				<linearGradient id="path1321_2_" gradientUnits="userSpaceOnUse" x1="5.027" y1="103.6172" x2="5.2913" y2="103.2141" gradientTransform="matrix(-78.6324 0 0 -71.4608 555.3872 7424.8677)">
				<stop  offset="0" style="stop-color:#FF1010"/>
				<stop  offset="1" style="stop-color:#000000"/>
			</linearGradient>
			<path id="path1321_1_" class="st11" d="M155.7,21.1c-1.7,1.2-3.7,2.6-5.7,3.3c-1.3,0.4-2.5,0.7-3.4,1.5c-0.5,0.4-0.9,1-1.1,1.6
				c-0.6,1.3-0.9,2.9-1.3,4.3c-0.7,2.4-1.6,5.4-1.8,7.4c0,0.4,0.8,0,1.3-0.1c1.1,0,2.3-0.2,3.4-0.5c1.7-0.4,3.3-1,5-1.5
				c0.9-0.3,1.8-0.8,2.7-1.2c1.2-0.6,2.4-1.4,3.6-2.1c1-0.6,1.8-1.4,2.7-2.2c0.7-0.6,1.3-1.2,1.8-1.9c0.6-0.7,1.2-1.4,1.6-2.2
				c0.2-0.4,0.3-1.1,0.1-1.4c-0.6-0.8-1.9-1.2-2.7-2.1c-0.7-0.9-1.4-1.8-2-2.7c-0.6-0.8-1.7-2.7-1.9-2.1
				C157.7,20,156.5,20.5,155.7,21.1z"/>
			<path id="path3861_1_" class="st10" d="M165.1,24.7c-0.2-0.2-0.5-1.3-0.4-0.5c0,0.5,0.2,1.2-0.3,0.4c-0.4-0.6-0.4-0.6-0.2,0.1
				c0.3,0.8-0.4-0.2-0.6-0.3c0.1,0.3,0.7,1.2,0.3,1c-0.3-0.2-0.9-0.6-0.8-0.3c0.4,0.5,0.6,0.7-0.1,0.4c0,0.1-0.3,0,0.2,0.4
				c0.6,0.4,0.5,0.5-0.2,0.4c-1-0.1,0.6,0.3,0.3,0.4c-0.6,0.1-1,0.1-0.2,0.3c0.5,0.2-0.1,0-0.3,0.3c-0.2-0.5-0.3,0.2-0.2,0.1
				c0,0.4,0.2,1.1-0.2,0.5c-0.3-0.5-0.6-0.8-0.3,0c0.3,0.8-0.3,0-0.6-0.2c-0.1,0,0.6,1,0.3,1c-0.3-0.2-1-0.6-0.8-0.4
				c0.4,0.5,0.6,0.7-0.1,0.4c0,0.1-0.3,0,0,0.3c0.4,0.3,0.9,0.7,0.1,0.5c-0.9-0.1-0.2,0.2,0.3,0.4c-0.2,0.1-0.8,0.1-0.8,0.1
				c0,0.1-0.1,0.9-0.1,0.8c-0.2-0.3-0.5-1.2-0.4-0.4c0.1,0.6,0.1,1-0.3,0.3c-0.4-0.7-0.3-0.3-0.2,0.3c0.3,0.7-0.6-0.5-0.6-0.3
				c0,0.3,0.7,1.2,0.2,0.9c-0.3-0.2-1-0.6-0.7-0.2c0.5,0.5,0.4,0.6-0.3,0.3c0.2,0.2-0.4,0,0.2,0.4c0.7,0.4,0,0.5,0,0.1
				c-0.1,0.1,0,0.2-0.5,0.3c0.3-0.1,0.2,0.9-0.1,0.2c-0.2-0.8-0.2-0.3-0.2,0.2c0,0.4-0.5-1.2-0.4-0.6c0,0.4,0.2,1.4-0.2,0.6
				c-0.3-0.5-0.6-0.8-0.3,0c0.3,0.8-0.3,0-0.6-0.2c-0.1,0,0.6,1,0.3,1c-0.4-0.2-0.9-0.5-0.9-0.4c0.3,0.4,0.8,0.9,0,0.5
				c-0.2,0-0.4,0,0,0.3c0.7,0.4-0.2,0.6-0.1,0.2c-0.1,0.2-0.1,0.1-0.4,0.3c0.4,0.2-0.2,0.7-0.1,0.7c-0.1-0.2-0.3-1.4-0.3-0.7
				c0,0.7-0.1,0.7-0.4,0c-0.3-0.6,0,0.6-0.1,0.8c-0.1,0.1-0.6-0.9-0.7-0.8c0,0.3,0.5,1.3-0.1,0.7c-0.6-0.6-0.4-0.2-0.1,0.3
				c0.4,0.7-0.5-0.1-0.7-0.2c-0.4-0.2,0.5,0.6,0.3,0.6c-0.6-0.3-0.6-0.1-0.6,0c0.2,0.2,1.2,0.8,0.5,0.7c-0.1-0.1-0.8-0.1-0.6,0.1
				c0.3,0.2-0.7,0.9-0.3,0.1c0.1-0.7,0-0.6-0.1-0.6c-0.3,0.7-0.4,0.6-0.3-0.1c-0.1,0-0.1-0.2-0.3,0.5c-0.2,0.9-0.3,0.1-0.4-0.3
				c-0.1-0.7-0.1,0.6-0.2,0.7c-0.2-0.3-0.5-1.3-0.4-0.5c0.1,0.7,0,0.9-0.3,0.2c-0.4-0.8-0.2-0.1-0.1,0.4c0.2,0.6-0.8-0.7-0.6-0.3
				c0.1,0.3,0.7,1.2,0.1,0.8c-0.4-0.2-0.9-0.6-0.6-0.1c0.7,0.5-0.4,0.5-0.2,0c-0.1,0,0-0.2-0.2,0c-0.3,0.8-0.3,0.1-0.3-0.4
				c-0.1,0.1-0.2,0.2-0.4,0.8c-0.2,0.7-0.3-0.5-0.4-0.8c-0.1-0.1,0,1.4-0.3,0.6c-0.3-0.7-0.3-0.6-0.2,0.1c0.2,0.9-0.3,0-0.5-0.3
				c-0.4-0.6,0.1,0.6,0.1,0.8c-0.2-0.1-0.9-1-0.6-0.4c0.2,0.4,0.6,1.1-0.1,0.6c-0.2-0.1-0.8-0.5-0.5-0.1c0.6,0.5-0.6,0.5-0.2-0.1
				c-0.1,0-0.1-0.2-0.2,0c-0.3,0.8-0.3,0.3-0.3-0.2c-0.1,0.1-0.2,0-0.4,0.7c-0.2,0.8-0.3-0.3-0.4-0.6c-0.1-0.4,0,1.2-0.2,0.7
				c-0.2-0.5-0.4-1-0.3-0.2c0.2,0.8-0.1,0.4-0.4-0.1c-0.4-0.7,0,0.4,0,0.7c0,0.2-0.9-1-0.6-0.4c0.2,0.4,0.6,1.1-0.1,0.6
				c-0.4-0.3-0.8-0.4-0.3,0.1c0.7,0.6-0.4,0-0.4,0.2c-0.2,0,0.1,0.3,0.5,0.6c0.6,0.4-0.6,0.1-0.9,0.2c0.4,0.2,1.2,0.5,0.3,0.5
				c-0.9,0.1,0.5,0.2,0.5,0.3c-0.3,0.1-1.4,0.4-0.5,0.4c0.8-0.2,0.2,0.6-0.2,0.4c-0.1,0.1,0,0.2,0.4,0.6c0.1,0.2-0.9-0.3-0.6,0
				c-0.3,0,0.7,0.6,0.7,0.7c-0.2,0-1.4-0.2-0.8,0.1c0.8,0.3,0.3,0.3-0.3,0.4c-0.1,0.1,1.3,0.2,0.5,0.4c-0.7,0.2-0.6,0.3,0.1,0.3
				c0.7,0-0.6,0.5-0.5,0.6c0.3,0,1.3-0.4,1,0c-0.2,0.3-1,1-0.3,0.5c0.7-0.4,0.4,0,0.1,0.5c-0.3,0.4,0.5-0.2,0.8-0.4
				c0.4-0.3-0.2,0.7-0.2,1c0,0.2,0.8-1.1,0.6-0.5c-0.1,0.7-0.1,0.9,0.2,0.2c0.2-0.4,0,1.3,0.2,0.4c0.2-0.7,0.3-0.7,0.4,0
				c0.1,0.8,0.2-0.3,0.3-0.6c0.1-0.7,0.3,0.5,0.5,0.7c0.2,0.5,0-0.6,0-0.8c0.2,0.2,0.7,1.1,0.6,0.6c0-0.3-0.5-1.3,0-0.8
				c0.3,0.3,1,0.9,0.5,0.1c-0.5-0.7-0.1-0.4,0.4-0.1c0.2,0.2,0.6-0.4,1-0.5c0.4-0.3-0.2,0.7-0.2,1c0,0.2,0.8-1.1,0.6-0.5
				c-0.1,0.6-0.1,0.9,0.2,0.2c0.2-0.4,0,1.3,0.2,0.4c0.2-0.7,0.3-0.7,0.4,0c0.1,0.8,0.2-0.4,0.2-0.6c0.1-0.7,0.3,0.5,0.5,0.7
				c0.2,0.5,0-0.6,0-0.9c0.2,0.2,0.7,1.1,0.6,0.6c0-0.3-0.5-1.3,0-0.8c0.3,0.3,0.9,0.9,0.5,0.1c-0.5-0.7,0-0.4,0.4-0.1
				c0.6,0.4-0.8-0.8-0.2-0.6c0.7,0.3,0.5,0.1,0.1-0.3c0.6-0.5,0.2,0.8,0.6,0c0.2-0.4,0.2-0.2,0.2,0.4c0,0.4,0.3-1.2,0.4-0.6
				c0.1,0.4,0.2,1.3,0.3,0.4c0.1-0.5,0.1-1.1,0.4-0.3c0.2,0.6,0.4,0.8,0.3,0c-0.1-0.8,0.4,0.2,0.6,0.4c0-0.3-0.2-0.8-0.3-1.2
				c0.3,0.2,0.9,0.8,0.9,0.7c-0.1-0.3-0.8-1.2-0.1-0.7c0.7,0.4,0.3,0.2,0.2-0.3c0.4-0.1,0.4,0.5,0.5,0c0.2-0.8,0.4-0.1,0.4,0.4
				c0.1-0.1,0.2-0.9,0.2-1.2c0.2,0.4,0.4,0.9,0.6,1.1c0-0.2-0.2-1.3,0.1-0.8c0.3,0.4,0.6,0.9,0.3,0.1c-0.2-0.6-0.2-0.9,0.3-0.3
				c0.6,0.6,0.4,0.2,0.1-0.3c-0.4-0.6,0.6,0.2,0.8,0.2c-0.3-0.4-0.9-0.9-0.1-0.6c0.7,0.3-0.6-0.5,0.2-0.5c0.1,0.6,0.2,0.2,0.2,0
				c0.2-0.8,0.3-0.3,0.3,0.2c0.1,0.7,0.2-0.5,0.2-0.8c0.1-0.5,0.4,0.6,0.5,0.8c0.2,0.3-0.1-0.8,0-0.9c0.2,0.2,0.7,1.2,0.5,0.5
				c0-0.3-0.5-1.3,0.1-0.7c0.4,0.4,0.8,0.8,0.4,0c-0.5-0.7,0.1-0.3,0.5,0c0.4,0.2-0.9-0.9-0.2-0.6c0.9,0.4-0.1-0.2,0.4-0.4
				c0.5,0.2,0.3,0.4,0.5-0.3c0-0.8,0.2-0.4,0.4,0.1c0.3,0.8,0.2,0.2,0.2-0.3c-0.1-0.7,0.4,0.4,0.6,0.5c0-0.2-0.2-0.8-0.3-1.2
				c0.2,0.2,0.9,0.8,0.9,0.7c-0.1-0.3-0.8-1.2-0.1-0.7c0.7,0.5,0.4,0.1,0-0.3c-0.1-0.3,0.9,0.5,0.7-0.1c0.2-0.3,0.3-0.8,0.3-0.1
				c0,0.8,0.2-0.3,0.4-0.6c0.1,0.2,0.2,1.4,0.3,0.8c0.1-0.3,0.1-1.4,0.3-0.7c0.1,0.2,0.5,1.3,0.4,0.6c-0.1-0.6-0.1-0.9,0.3-0.2
				c0.4,0.7,0.1-0.2,0-0.6c-0.3-0.7,0.4,0.1,0.7,0.3c0.4,0.4-0.4-0.8-0.3-0.8c0.3,0.1,1.2,0.8,0.6,0.1c-0.6-0.6,0-0.3,0.4-0.2
				c-0.3-0.3-1.1-0.8-0.2-0.5c0.9,0.2,0-0.2-0.3-0.4c-0.4-0.2,0.7-0.2,1-0.3c0-0.1-0.6-0.2-0.8-0.3c0.4-0.5,0.8,0.4,0.7-0.3
				c0.1,0.1-0.2-1.1,0.2-0.4c0.3,0.5,0.5,0.7,0.3,0c-0.3-0.7-0.1-0.7,0.4-0.2c0.6,0.6,0.2,0,0-0.4c-0.3-0.5,0.9,0.5,0.8,0.2
				c-0.4-0.4-0.7-0.8,0.1-0.5c0.6,0.3-0.8-0.7-0.3-0.5c-0.1-0.1,1.2,0.2,0.5-0.1c-0.7-0.1-0.4-0.8,0-0.2c0.3,0.5-0.3-0.7,0.5-0.4
				c0-0.1-0.8-0.2-0.4-0.5c0.3,0.2,1,0.9,0.5,0.2c-0.1-0.4-0.5-0.7,0.1-0.4c0.7,0.5,0.4,0.1,0-0.3c-0.2-0.3,1.2,0.5,0.4-0.1
				c-0.7-0.5,0-0.3,0.4-0.3c0.1-0.1-1-0.5-0.8-0.6c0.4-0.1,1.1-0.1,1-0.2c-0.4,0-1.2-0.4-0.4-0.3c0.1-0.3,0.7-0.3-0.1-0.3
				c-0.8-0.3,0.2-0.3,0.2-0.2c-0.8-0.3,0.6-0.5,0.1-0.6c-0.7-0.1,0.1-0.7-0.6-0.3c-0.4-0.2,0.7-0.2,1-0.3c0.1-0.1-1-0.2-0.8-0.3
				c0.3-0.1,1.2-0.3,0.4-0.3c-0.6,0-0.9-0.1-0.2-0.4c0.8-0.4,0-0.2-0.4-0.1c-0.4,0.1,0.8-0.8,0.5-0.7c-0.3,0.1-1.2,0.7-0.7,0.1
				c0.5-0.6,0.3-0.6-0.2-0.2c-0.5,0.4,0.4-1,0-0.6c-0.3,0.3-0.8,1-0.6,0.2c0.1-0.6,0-0.6,0-0.6c-0.3,0.7-0.4,0.6-0.4-0.1
				c-0.1,0.1-0.1-0.2-0.2,0.2c0,0.8-0.7,0.3-0.3-0.1c-0.1,0.3-0.3-0.4-0.3-0.1c-0.1,0.8-0.5,0.2-0.1-0.2c-0.1,0.2-0.5,0.1-0.5,0.4
				c-0.5,0.6-0.1-0.4-0.1-0.7c-0.1,0,0-0.3-0.2,0.1c-0.3,0.8-0.2-0.2-0.3-0.4c-0.1,0-0.2,0.3-0.4,0.9c-0.2,0.5-0.2-0.7-0.4-0.9
				C165.2,24,165.2,24.4,165.1,24.7z M160.7,30c0.8,0-0.3,0.7-0.2,0C160.6,29.9,160.6,29.9,160.7,30z M166.5,34.4
				c0,0.4-0.8-0.1-0.2-0.4C166.3,34.1,166.4,34.2,166.5,34.4z M152.5,36.6C153.2,36.7,152.1,37,152.5,36.6L152.5,36.6z M162.6,37.5
				L162.6,37.5C163.3,37.7,162.3,38.1,162.6,37.5L162.6,37.5z M160.2,39c0.3,0.7-0.5,0.2,0-0.2C160.1,38.8,160.2,38.9,160.2,39z
				 M142.1,41.9c-0.1,0.4-0.9-0.3-0.1-0.2C142,41.8,142,41.8,142.1,41.9z M146.1,45.1c0,0.7-0.7,0-0.4-0.2c0.7,0.3-0.1-0.2,0.7-0.3
				C146.3,44.8,146.2,45,146.1,45.1z"/>
			<path id="path2310_1_" class="st12" d="M164.6,25.1c0,0.7-0.4-0.6-0.4-0.5c0,0.3,0.2,1.3-0.1,0.7c-0.3-0.4-0.6-0.8-0.3-0.1
				c0.3,0.7-0.3,0-0.5-0.2c-0.1,0,0.5,0.9,0.3,0.9c-0.3-0.2-0.8-0.5-0.9-0.4c0.4,0.4,0.7,0.8,0,0.4c-0.2,0-0.3,0,0.1,0.4
				c0.7,0.4,0.2,0.4-0.3,0.3c-0.7-0.1,0.6,0.3,0.4,0.3c-0.5,0.1-1.1,0.1-0.3,0.2c0.6,0.2,0,0-0.2,0.3c-0.2-0.2-0.4,0.1-0.2,0.1
				c0,0.4,0.2,1-0.2,0.4c-0.3-0.5-0.5-0.7-0.3,0c0.3,0.7-0.4-0.1-0.6-0.3c0.1,0.2,0.6,1.1,0.3,0.9c-0.3-0.2-0.9-0.5-0.8-0.3
				c0.4,0.4,0.6,0.7-0.1,0.4c0,0.1-0.3,0,0.2,0.4c0.7,0.4,0.2,0.4-0.3,0.3c-0.8-0.1,0.8,0.3,0.3,0.4c-0.5,0.2-0.7-0.2-0.6,0.4
				c-0.1,0.5-0.1,0.3-0.3-0.2c-0.3-0.6,0,0.5-0.1,0.7c-0.1,0.1-0.6-0.9-0.6-0.7c0.1,0.4,0.4,1.1-0.1,0.5c-0.6-0.6-0.2,0,0,0.4
				c0.3,0.5-0.5-0.2-0.8-0.2c-0.3-0.1,0.5,0.6,0.3,0.6c-0.6-0.3-0.4,0-0.7-0.1c0.2,0.2,1.1,0.7,0.5,0.7c-0.1-0.3-0.1-0.1-0.2-0.2
				c0,0.3-0.8,0.1-0.2,0.4c-0.3,0.6-0.4-0.4-0.5-0.5c-0.1,0.3,0,1.2-0.3,0.5c-0.3-0.8-0.2,0-0.2,0.4c0,0.5-0.5-0.5-0.7-0.7
				c0,0.2,0.5,1.2,0,0.7c-0.5-0.5-0.5-0.4-0.2,0.2c0.5,0.7-0.3,0.1-0.6,0c-0.4-0.2,0.1,0.3,0.3,0.6c-0.5-0.2-0.7-0.2-0.7-0.1
				c-0.1,0,1,0.7,0.3,0.6c-0.1-0.4-0.1,0-0.2-0.3c-0.4,0.4-0.1,0.1-0.3,0.7c-0.1,0.3-0.1,0.1-0.3-0.4c-0.1-0.7-0.1,0.3-0.2,0.5
				c-0.2-0.3-0.5-1.2-0.4-0.4c0.1,0.7,0,0.7-0.4,0.1c-0.4-0.7-0.1,0.2,0,0.5c0,0.2-0.9-0.9-0.6-0.3c0.2,0.4,0.6,1-0.1,0.5
				c-0.4-0.2-0.7-0.4-0.3,0c0.7,0.6-0.4,0-0.4,0.2c-0.1,0-0.1,0.1,0.3,0.4c0.7,0.4-0.1,0.3-0.2,0.2c-0.8,0.1,0,0-0.4,0.4
				c-0.4,0.5-0.1-0.4-0.1-0.7c0-0.1-0.1-0.2-0.4,0.3c-0.2,0.1,0-0.9-0.2-0.5c-0.1-0.1-0.3,1.2-0.4,0.7c-0.1-0.3-0.3-1.2-0.3-0.4
				c0,0.8-0.3-0.1-0.5-0.4c0,0.2,0.2,1.2,0,0.9c-0.2-0.2-0.7-1.1-0.5-0.3c0.3,0.7,0,0.5-0.4,0.1c-0.3-0.3,0.3,0.6,0.3,0.8
				c-0.3-0.1-0.9-0.5-0.9-0.4c0,0,0.7,0.8,0,0.4c0-0.5-0.1-0.1-0.1-0.4c-0.3,0.6-0.4,0.7-0.4,0c-0.1-0.2-0.2,0-0.3,0.5
				c-0.2,0.7-0.3-0.3-0.4-0.6c-0.1-0.1,0,1.3-0.3,0.5c-0.3-0.7-0.3-0.3-0.2,0.2c0.1,0.7-0.3-0.2-0.6-0.4c-0.3-0.3,0.4,1,0,0.7
				c-0.4-0.3-0.8-0.7-0.3,0c0.4,0.6,0.2,0.5-0.3,0.2c-0.5-0.3-0.5-0.2-0.1,0.2c-0.6,0.5-0.3-0.7-0.4-0.4c0.1-0.5-0.4,0.7-0.4,0.2
				c0-0.6-0.1-0.6-0.2-0.3c-0.2,0.5-0.3,1-0.4,0.2c-0.2-0.8-0.2-0.1-0.2,0.3c-0.1,0.2-0.5-1.1-0.4-0.5c0,0.4,0.2,1.2-0.2,0.5
				c-0.4-0.6-0.4-0.4-0.2,0.2c0.2,0.6-0.5-0.3-0.6-0.3c0,0.2,0.7,1.1,0.2,0.8c-0.3-0.2-0.9-0.5-0.6-0.2c0.5,0.5,0.4,0.5-0.2,0.3
				c0.2,0.2-0.3,0,0,0.2c0.3,0.3,1,0.7,0.2,0.5c-0.8-0.1-0.4,0.1,0.1,0.3c0,0.1-1.3,0.1-0.4,0.2c0.8,0.1,0.1,0.2-0.3,0.4
				c-0.4,0.1,1.1-0.1,0.5,0.3c-0.4,0.3-0.5,0-0.4,0.3c0.5,0.3,0.5,0.6-0.1,0.3c0,0.1-0.3,0,0.1,0.3c0.6,0.4,0.4,0.5-0.2,0.4
				c-0.7-0.1,0.2,0.2,0.4,0.3c-0.4,0.1-1.2,0.1-0.4,0.2c0.8,0.1-0.1,0.3-0.4,0.4c-0.1,0.1,1.1,0,0.8,0.1c-0.3,0.2-1.1,0.6-0.3,0.4
				c0.6-0.1,0.8-0.1,0.3,0.4c-0.6,0.5-0.1,0.2,0.3,0.1c0.5-0.2-0.4,0.7-0.3,0.7c0.1,0,0.7-0.4,0.9-0.6c0,0.2-0.5,1.1-0.3,0.9
				c0.3-0.4,0.7-0.8,0.4,0c-0.2,0.9,0.4-0.7,0.3-0.1c-0.1,0.8,0.1,0.3,0.3-0.2c0.1-0.4,0.2,1.1,0.3,0.6c0.1-0.2,0.1-1.3,0.3-0.7
				c0.1,0.2,0.5,1.2,0.4,0.5c-0.1-0.7,0-0.7,0.4-0.1c0.4,0.6,0-0.4,0-0.7c-0.1-0.5,0.6,0.4,0.8,0.5c0.1,0-0.7-1-0.3-0.7
				c0.5,0.2,0.6,0.5,1,0.1c0.4-0.3,0.7-0.5,0.4,0.2c-0.3,0.7-0.1,0.4,0.3,0c0.4-0.5-0.2,1,0.1,0.6c0.3-0.7,0.3-0.2,0.3,0.3
				c0.1-0.3,0.3-1.3,0.4-0.5c0.1,0.8,0.2,0.4,0.3-0.2c0-0.8,0.3,0.1,0.5,0.4c0.2,0.6,0-0.5,0.1-0.7c0.2,0.1,0.7,1,0.6,0.6
				c0-0.3-0.5-1.2,0-0.8c0.3,0.2,0.9,0.8,0.5,0.1c-0.5-0.6-0.1-0.4,0.4-0.1c0.5,0.3-0.7-0.7-0.2-0.5c0.6,0.2,0.5,0.2,0.7-0.3
				c0.1-0.4,0.1,0.2,0.2,0.5c0.2-0.3,0.4-1.3,0.4-0.5c0.1,0.8,0.2,0.4,0.3-0.2c0-0.8,0.3,0.1,0.5,0.4c0.2,0.6,0-0.5,0.1-0.7
				c0.2,0.1,0.7,1,0.6,0.6c0-0.3-0.5-1.2,0-0.8c0.3,0.2,0.9,0.8,0.5,0.1c-0.5-0.6-0.1-0.4,0.4-0.1c0.4,0.3-0.5-0.8,0.2-0.3
				c0.1,0.4,0.1-0.3,0.3-0.5c0.2,0.2,0.2,1.2,0.3,0.3c0.1-0.6,0.2-0.8,0.4-0.1c0.3,0.7,0.3,0.4,0.2-0.2c-0.1-0.7,0.5,0.5,0.6,0.4
				c0-0.2-0.3-0.9-0.2-1c0.2,0.1,1,0.9,0.7,0.4c-0.2-0.4-0.6-0.9,0.1-0.4c0.7,0.4,0.2,0-0.1-0.4c0.1-0.1,1.1,0.4,0.4-0.1
				c0-0.7,0.4,0.3,0.4,0c0.1-0.1,0.2-1,0.3-0.4c0.1,0.6,0.2,0.8,0.3,0.1c0-0.8,0.2-0.4,0.4,0.1c0.3,0.7,0.1-0.1,0.1-0.4
				c0-0.3,0.5,0.6,0.6,0.6c0-0.3-0.4-1.1-0.2-1c0.2,0.1,1,0.9,0.6,0.4c-0.4-0.5-0.4-0.7,0.2-0.3c0.6,0.4-0.1-0.3-0.2-0.5
				c0.4,0.1,1,0.4,0.4-0.1c0.2-0.7,0.7,0.5,0.6-0.2c0.1-0.3,0.1-1.2,0.3-0.4c0.2,0.3,0.4,1,0.3,0.2c-0.2-0.8,0.2-0.2,0.5,0.1
				c0.2,0.2-0.1-0.7-0.2-0.9c0.1,0,0.6,0.5,0.9,0.6c-0.1-0.3-0.8-1.1-0.2-0.7c0.6,0.4,0.6,0.3,0.1-0.2c-0.5-0.4,0.9,0.3,0.5-0.1
				c0.2-0.2,0.4-0.9,0.4-0.3c0,0.8,0.2-0.1,0.3-0.4c0.1,0.2,0.2,1.3,0.3,0.6c0.1-0.3,0.1-1.2,0.3-0.4c0.2,0.3,0.4,1,0.3,0.2
				c-0.2-0.8,0.2-0.2,0.5,0.1c0.2,0.2-0.1-0.7-0.2-0.9c0.1,0,0.6,0.5,0.9,0.6c-0.1-0.3-0.8-1.1-0.2-0.7c0.6,0.4,0.6,0.3,0.1-0.2
				c-0.5-0.4,1,0.3,0.4-0.1c-0.6-0.4-0.4-0.5,0.2-0.3c0.5,0.1-0.6-0.4-0.7-0.5c0.2-0.1,1.3-0.1,0.9-0.2c0.4-0.1-1.1-0.2-0.3-0.3
				c0.5-0.3,0.4,0.4,0.5-0.2c-0.3-0.3-0.1-0.9,0.2-0.2c0.4,0.7,0.2,0,0.1-0.4c-0.3-0.7,0.4,0.1,0.6,0.2c0.4,0.4-0.4-0.7-0.3-0.7
				c0.3,0.1,1.1,0.7,0.6,0.1c-0.6-0.5,0-0.3,0.4-0.2c-0.2-0.2-0.9-0.7-0.5-0.5c0.2-0.1,1.1,0.1,0.3-0.2c-0.7-0.3,0-0.6,0.2,0
				c-0.1,0,0.2-0.6,0.3-0.5c0.2,0.1-0.8-0.4-0.2-0.3c0.4,0.3,0.8,0.7,0.3,0c-0.2-0.4-0.3-0.4,0.3-0.1c0.7,0.4,0-0.2-0.2-0.5
				c0.4,0.1,1.1,0.4,0.4-0.1c-0.7-0.4,0.2-0.2,0.6-0.2c-0.2-0.2-1.2-0.5-0.7-0.5c0.5-0.1,0.9-0.1,0.9-0.2c-0.4,0-1.2-0.3-0.4-0.2
				c0-0.2,0.8-0.3,0-0.3c-0.7-0.1-0.2-0.5,0.2-0.2c-0.7-0.2,0.1-0.5,0.1-0.5c-0.7-0.1-0.2-0.7-0.6-0.4c-0.5-0.1,0.6-0.2,0.8-0.2
				c0.2-0.1-0.6-0.2-0.7-0.3c0.3-0.1,1.2-0.3,0.4-0.3c-0.5,0-1,0-0.3-0.4c0.7-0.4,0.2-0.3-0.3-0.2c-0.5,0.1,0.4-0.5,0.5-0.7
				c-0.3,0-1.2,0.6-0.8,0.2c0.4-0.5,0.5-0.7-0.1-0.3c-0.6,0.5,0.3-0.7,0-0.6c-0.3,0.2-0.8,1-0.6,0.2c0.2-0.6,0-0.4,0-0.7
				c-0.2,0.4-0.5,0.8-0.4,0.1c0-0.3-0.2-0.1-0.3,0.4c-0.4,0.6-0.1-0.7-0.3-0.3c-0.3-0.5,0,0.2-0.4,0.2c0-0.5,0.3-0.7-0.2-0.3
				c0-0.2-0.6,0.9-0.3,0c0.1-0.6,0-0.5,0-0.6c-0.3,0.6-0.4,0.5-0.3-0.1c-0.1,0-0.2,0.1-0.4,0.7c-0.2,0.6-0.3-0.5-0.4-0.7
				C164.6,24.7,164.6,24.9,164.6,25.1z M166.4,25.9C166.4,26.1,166.3,26,166.4,25.9z M162.2,27.7C162.8,27.6,162.4,28.5,162.2,27.7z
				 M162.7,27.8C163.2,27.6,162.7,28.1,162.7,27.8z M162.9,28.2C162.9,28.6,162.7,28.1,162.9,28.2z M168.5,28.7
				C169.4,28.7,168.9,29,168.5,28.7z M168.3,29.4C168.4,29.4,168.2,29.4,168.3,29.4z M160.3,30.1c0.8,0-0.2,0.7-0.1,0
				C160.2,30.1,160.2,30.1,160.3,30.1z M160.3,30.6C160.6,30.5,160.2,31.2,160.3,30.6z M160.8,30.6
				C160.8,30.7,160.8,30.6,160.8,30.6z M161.2,31C161.1,31,161.1,30.9,161.2,31z M158.5,32C158.6,32.1,158.4,32.1,158.5,32z
				 M158.2,32.3C158.4,32.4,158.1,32.5,158.2,32.3z M157.6,32.6C157.9,32.5,157.6,32.9,157.6,32.6z M165.5,33.4
				C165.7,33.6,165.4,33.6,165.5,33.4z M165.8,34c0,0.4-0.8-0.1-0.2-0.4C165.7,33.8,165.7,33.9,165.8,34z M155.7,33.8
				C155.9,34.1,155.6,34,155.7,33.8z M155.8,33.9C156,34,155.7,34,155.8,33.9z M165.1,34C165.3,34.2,164.7,34.2,165.1,34z
				 M155.3,34.1C155.6,34.2,155.2,34.5,155.3,34.1z M165.3,34.5C165.3,34.5,165.2,34.5,165.3,34.5z M152.5,36
				C153.2,36.1,152.1,36.4,152.5,36z M162.1,36.3C162.1,36.7,161.3,36.2,162.1,36.3z M162.4,36.3C162.5,36.9,161.9,36.6,162.4,36.3z
				 M152.3,36.4C152.6,36.3,152,36.7,152.3,36.4z M152.7,36.5C153.1,36.4,152.4,36.7,152.7,36.5z M161.7,36.7
				C162,36.7,161.9,37,161.7,36.7z M162.1,36.8L162.1,36.8C162.8,37,161.8,37.3,162.1,36.8L162.1,36.8z M148.7,36.8
				C148.8,36.8,148.6,36.8,148.7,36.8z M149.2,36.8C149.4,36.9,149.1,36.9,149.2,36.8z M148.7,36.9
				C149.2,37.1,148.2,37.7,148.7,36.9z M149.1,37.2C149.4,37.3,148.7,37.6,149.1,37.2z M145.4,37.7
				C145.5,37.8,145.3,37.8,145.4,37.7z M145.9,37.7C146.1,37.8,145.8,37.8,145.9,37.7z M145.3,37.8C145.7,37.9,145,38.4,145.3,37.8z
				 M159.8,38.2c0.3,0.7-0.5,0.1-0.1-0.2C159.8,38,159.8,38.1,159.8,38.2z M159.4,38C159.5,38.4,159.1,38.2,159.4,38z M159.1,38
				C159.1,38.2,158.9,38,159.1,38z M145.7,38.1C145.9,38.2,145.6,38.3,145.7,38.1z M146,38.3C146.1,38.4,146,38.4,146,38.3z
				 M159.1,38.5C159.6,38.4,159.5,39,159.1,38.5z M156.5,39.5C156.5,40.1,156,39.7,156.5,39.5z M156.1,39.6
				C156,39.6,156,39.6,156.1,39.6z M156.7,39.7C156.9,40.2,156.4,40,156.7,39.7z M156.1,40C156.6,40,156.4,40.4,156.1,40z
				 M142.4,40.2C142.6,40.1,142.5,40.3,142.4,40.2z M142.5,40.6L142.5,40.6C142.6,41.1,141.6,40.4,142.5,40.6L142.5,40.6z
				 M154.1,41.2C154.3,41.5,153.9,41.4,154.1,41.2z M153.3,41.3C153.6,41.2,153.5,41.6,153.3,41.3z M153.7,41.3
				C153.9,42,153.4,41.5,153.7,41.3z M153.2,41.6C153.5,41.6,153.4,42,153.2,41.6z M150.3,42.2C150.3,42.7,149.5,42.1,150.3,42.2z
				 M150.7,42.3C150.7,42.8,150.2,42.6,150.7,42.3z M146,42.5C145.7,42.8,145.6,42.5,146,42.5z M150,42.7
				C150.2,42.7,150.1,42.9,150,42.7z M150.3,42.7L150.3,42.7C151,43,150,43.3,150.3,42.7L150.3,42.7z M146.6,42.7
				C146.3,43.2,145.7,42.7,146.6,42.7z M145.7,43C146.5,42.9,146.1,43.5,145.7,43z M146.3,43.7c0,0.6-0.7-0.1-0.3-0.2
				c0.7,0.3-0.1-0.2,0.7-0.3C146.6,43.3,146.4,43.5,146.3,43.7z M145.7,43.3C146,43.4,145.8,43.7,145.7,43.3z"/>

				<linearGradient id="path1323_2_" gradientUnits="userSpaceOnUse" x1="4.122" y1="105.13" x2="4.4423" y2="104.7743" gradientTransform="matrix(-92.3516 0 0 -132.5671 533.3991 13948.6533)">
				<stop  offset="0" style="stop-color:#FF1010"/>
				<stop  offset="1" style="stop-color:#000000"/>
			</linearGradient>
			<path id="path1323_1_" class="st13" d="M154.4,22.3c-1,0.8-2.3,1.3-3.4,1.9c-1.3,0.6-3.1,0.7-4.1,1.7c-1,1-1.3,2.8-1.8,4.2
				c-1.1,3.3-2.3,6.7-3,10.1c-0.5,2.6-0.8,5.3-1.8,7.8c-0.5,1.4-0.7,3-1.6,4.2c-0.3,0.5-0.6,1.6-1.2,1.3c-1-0.5-0.7-2.2-1.1-3.2
				c-1.1-3.1-2.9-6-4-9.2c-0.5-1.7-0.2-3.5-0.2-5.2c0-3.1,0.2-6.1,0.4-9.2c0.1-1,0.5-1.9,0.9-2.8c0.6-1.3,1.5-2.4,2.5-3.5
				c0.9-1.1,2-2,3.2-2.6c1.7-0.8,3.7-0.8,5.5-1.4c2.1-0.6,4.3-0.6,6.4-0.5c1,0.1,2,0.5,3,0.9c1.3,0.6,4.3,1.7,4.2,2.5
				C158.3,20.4,155.8,21.2,154.4,22.3z"/>
			<path id="path2220_1_" class="st12" d="M137.3,50.5l-0.4-0.8l0.1,1.1l-0.7-0.9l0.2,0.9l-0.7-0.6l0.5,1l-0.9-0.5l0.1,0.1l-0.1-0.1
				l0.5,0.6l-0.7-0.2l0.2,0.2l-0.3-0.1l0.8,0.7l-1,0l0.8,0.4l-0.8,0.1l0.8,0.2l-0.9,0.3l1,0.1l-0.9,0.5l1.1-0.1l-0.8,0.8l0.6-0.2
				l0.3-0.1l-0.5,0.7l0.1,0l-0.1,0.1l1-0.6l-0.4,1.1l0.6-0.7l-0.1,0.9l0.4-0.6l0,0.8l0.3-0.9l0.2,0.9l0.2-1.1l0.5,1.1v0v0l-0.1-0.9
				l0.6,0.7l0,0l0,0l-0.3-1.1l0.9,0.7l-0.5-0.9l0.9,0.4l-0.6-0.7l0.8,0.2l-0.7-0.6l0.9,0.1l-0.9-0.5l1.1-0.2l-0.2,0l0.1,0l-0.8-0.2
				l0.9-0.3l-0.1,0l-0.3,0l-0.7,0l0.9-0.6l-1,0.2l0.7-0.7l-1,0.4l0.6-0.8l-0.7,0.5l0.3-0.8l-0.7,0.7l0.2-1l-0.1,0.2l0-0.2l-0.4,0.6
				l0-0.8l-0.1,0.2l0-0.2l-0.4,0.9l-0.3-1L137.3,50.5z"/>

				<linearGradient id="path4547_2_" gradientUnits="userSpaceOnUse" x1="4.2008" y1="104.4519" x2="4.6295" y2="103.8732" gradientTransform="matrix(-90.9063 0 0 -97.2172 533.3991 10168.3301)">
				<stop  offset="0" style="stop-color:#FF1010"/>
				<stop  offset="1" style="stop-color:#000000"/>
			</linearGradient>
			<path id="path4547_1_" class="st14" d="M154.4,22.3c-1,0.8-2.3,1.3-3.4,1.9c-1.3,0.6-3.1,0.7-4.1,1.7c-1,1-1.7,3.2-2.2,4.7
				c-1.1,3.3,1.6-3.6,0.4-0.3c-1,2.8-1.9,4.9-2.9,7.4c-0.5,1.4,0,3.4-0.9,4.6c-0.3,0.5-0.6,1.6-1.2,1.3c-1-0.5-0.7-2.2-1.1-3.2
				c-1.1-3.1-1.4-6.6-3.5-9.2c-1-1.2-1.8-1.7-2.8-4.3c-0.4-1,0.5-1.9,0.9-2.8c0.6-1.3,1.5-2.4,2.5-3.5c0.9-1.1,2-2,3.2-2.6
				c1.7-0.8,3.7-0.8,5.5-1.4c2.1-0.6,4.3-0.6,6.4-0.5c1,0.1,2,0.5,3,0.9c1.3,0.6,4.3,1.7,4.2,2.5C158.3,20.4,155.8,21.2,154.4,22.3z
				"/>
		</g>
	</g>
</g>
</svg>
