<?xml version="1.0" encoding="utf-8"?>
<!-- Generator: Adobe Illustrator 23.0.2, SVG Export Plug-In . SVG Version: 6.00 Build 0)  -->
<svg version="1.1" id="Ebene_1" xmlns="http://www.w3.org/2000/svg" xmlns:xlink="http://www.w3.org/1999/xlink" x="0px" y="0px"
	 viewBox="0 0 32 32" style="enable-background:new 0 0 32 32;" xml:space="preserve">
<style type="text/css">
	.st0{fill:#181716;}
	.st1{fill:url(#SVGID_1_);}
	.st2{fill:url(#SVGID_2_);}
	.st3{fill:url(#SVGID_3_);}
	.st4{fill:url(#SVGID_4_);}
	.st5{fill:url(#SVGID_5_);}
	.st6{clip-path:url(#SVGID_7_);fill:url(#SVGID_8_);}
</style>
<g>
	<path class="st0" d="M23.49,11.44c0-1.52-1.23-2.75-2.75-2.75v2.75H23.49z"/>
	<linearGradient id="SVGID_1_" gradientUnits="userSpaceOnUse" x1="29.7148" y1="12.1863" x2="9.7495" y2="31.6571">
		<stop  offset="0" style="stop-color:#E9C535"/>
		<stop  offset="1" style="stop-color:#CB5A2D"/>
	</linearGradient>
	<path class="st1" d="M20.74,11.05v10.01h10.01C30.75,15.54,26.27,11.05,20.74,11.05z"/>
	<circle class="st0" cx="26.52" cy="16.78" r="0.75"/>
	<linearGradient id="SVGID_2_" gradientUnits="userSpaceOnUse" x1="32.2793" y1="14.8159" x2="12.314" y2="34.2867">
		<stop  offset="0" style="stop-color:#E9C535"/>
		<stop  offset="1" style="stop-color:#CB5A2D"/>
	</linearGradient>
	<path class="st2" d="M30.75,21.07H20.74v10.01C20.74,25.55,25.22,21.07,30.75,21.07z"/>
	<linearGradient id="SVGID_3_" gradientUnits="userSpaceOnUse" x1="29.8388" y1="12.3134" x2="9.8735" y2="31.7842">
		<stop  offset="0" style="stop-color:#E9C535"/>
		<stop  offset="1" style="stop-color:#CB5A2D"/>
	</linearGradient>
	<path class="st3" d="M10.72,21.07c0,5.53,4.48,10.01,10.01,10.01V21.07H10.72z"/>
	<g>
		<linearGradient id="SVGID_4_" gradientUnits="userSpaceOnUse" x1="14.9957" y1="2.4598" x2="2.3424" y2="21.0055">
			<stop  offset="0" style="stop-color:#E9C535"/>
			<stop  offset="1" style="stop-color:#CB5A2D"/>
		</linearGradient>
		<path class="st4" d="M0.71,11.05c0,5.53,4.48,10.01,10.01,10.01V11.05H0.71z"/>
		<linearGradient id="SVGID_5_" gradientUnits="userSpaceOnUse" x1="10.334" y1="-0.7208" x2="-2.3193" y2="17.8249">
			<stop  offset="0" style="stop-color:#E9C535"/>
			<stop  offset="1" style="stop-color:#CB5A2D"/>
		</linearGradient>
		<path class="st5" d="M10.72,11.05c0-5.53-4.48-10.01-10.01-10.01v10.01H10.72z"/>
	</g>
	<g>
		<defs>
			<path id="SVGID_6_" d="M30.75,21.07L30.75,21.07L30.75,21.07c0-5.53-4.48-10.01-10.01-10.01v10.01v0v10.01
				C20.74,25.55,25.22,21.07,30.75,21.07L30.75,21.07L30.75,21.07z"/>
		</defs>
		<clipPath id="SVGID_7_">
			<use xlink:href="#SVGID_6_"  style="overflow:visible;"/>
		</clipPath>
		<radialGradient id="SVGID_8_" cx="30.7499" cy="20.3225" r="4.2886" gradientUnits="userSpaceOnUse">
			<stop  offset="0" style="stop-color:#FFFFFF"/>
			<stop  offset="0.8673" style="stop-color:#FFFFFF;stop-opacity:0"/>
		</radialGradient>
		<circle class="st6" cx="30.75" cy="20.32" r="4.29"/>
	</g>
	<circle class="st0" cx="30.75" cy="20.32" r="0.75"/>
</g>
</svg>
