<?xml version="1.0" encoding="UTF-8" standalone="no"?>
<svg
   xmlns:dc="http://purl.org/dc/elements/1.1/"
   xmlns:cc="http://creativecommons.org/ns#"
   xmlns:rdf="http://www.w3.org/1999/02/22-rdf-syntax-ns#"
   xmlns:svg="http://www.w3.org/2000/svg"
   xmlns="http://www.w3.org/2000/svg"
   viewBox="0 0 366.13333 75.053329"
   height="75.053329"
   width="366.13333"
   xml:space="preserve"
   id="svg2"
   version="1.1"><metadata
     id="metadata8"><rdf:RDF><cc:Work
         rdf:about=""><dc:format>image/svg+xml</dc:format><dc:type
           rdf:resource="http://purl.org/dc/dcmitype/StillImage" /></cc:Work></rdf:RDF></metadata><defs
     id="defs6" /><g
     transform="matrix(1.3333333,0,0,-1.3333333,0,75.053333)"
     id="g10"><g
       transform="scale(0.1)"
       id="g12"><path
         id="path14"
         style="fill:#b71717;fill-opacity:1;fill-rule:nonzero;stroke:none"
         d="M 0.46875,229.773 V 487.898 H 41.5508 L 223.516,335.762 c 6.203,-5.047 11.668,-9.817 16.406,-14.289 4.726,-4.481 9.051,-9.082 12.976,-13.797 -0.972,14.48 -1.621,24.738 -1.941,30.762 -0.332,6.027 -0.488,10.664 -0.488,13.925 v 135.535 h 53.75 V 229.773 H 263.125 L 73.3281,389.238 c -4.5703,4.063 -8.5703,7.727 -12,10.985 -3.4297,3.261 -6.6093,6.601 -9.5429,10.019 0.8125,-7.976 1.4179,-15.508 1.8281,-22.586 0.3984,-7.09 0.6055,-13.23 0.6055,-18.437 V 229.773 H 0.46875" /><path
         id="path16"
         style="fill:#b71717;fill-opacity:1;fill-rule:nonzero;stroke:none"
         d="m 435.039,229.773 v 258.125 h 263.75 v -43.75 h -203.75 v -58.125 h 119.375 v -43.75 H 495.039 v -63.75 h 206.25 v -48.75 h -266.25" /><path
         id="path18"
         style="fill:#b71717;fill-opacity:1;fill-rule:evenodd;stroke:none"
         d="M 835.152,562.883 H 0 V 523.176 H 788.738 V 229.844 h 46.407 l 0.007,333.039" /><path
         id="path20"
         style="fill:#b71717;fill-opacity:1;fill-rule:evenodd;stroke:none"
         d="m 1442.28,562.883 h 60 v -39.707 h -60 v 39.707" /><path
         id="path22"
         style="fill:#64696e;fill-opacity:1;fill-rule:nonzero;stroke:none"
         d="m 1002.38,229.773 v 258.125 h 60 v -100 h 187.5 v 100 h 60.62 V 229.773 h -60.62 v 111.25 h -187.5 v -111.25 h -60" /><path
         id="path24"
         style="fill:#64696e;fill-opacity:1;fill-rule:nonzero;stroke:none"
         d="m 1442.31,229.773 v 258.125 h 60 V 229.773 h -60" /><path
         id="path26"
         style="fill:#64696e;fill-opacity:1;fill-rule:nonzero;stroke:none"
         d="m 1634.2,229.773 v 258.125 h 41.09 l 181.96,-152.136 c 6.2,-5.047 11.67,-9.817 16.41,-14.289 4.72,-4.481 9.05,-9.082 12.98,-13.797 -0.98,14.48 -1.62,24.738 -1.95,30.762 -0.33,6.027 -0.49,10.664 -0.49,13.925 v 135.535 h 53.75 V 229.773 h -41.09 l -189.79,159.465 c -4.57,4.063 -8.58,7.727 -12.01,10.985 -3.42,3.261 -6.61,6.601 -9.54,10.019 0.81,-7.976 1.42,-15.508 1.83,-22.586 0.4,-7.09 0.6,-13.23 0.6,-18.437 V 229.773 h -53.75" /><path
         id="path28"
         style="fill:#64696e;fill-opacity:1;fill-rule:nonzero;stroke:none"
         d="m 2068.77,229.773 v 258.125 h 60.63 V 380.207 l 143.08,107.691 h 86.92 L 2188.49,366.289 2380.65,229.773 h -96.54 L 2129.4,343.332 V 229.773 h -60.63" /><path
         id="path30"
         style="fill:#64696e;fill-opacity:1;fill-rule:nonzero;stroke:none"
         d="m 2689.5,442.898 h -168.75 v -55.625 h 160.7 c 25.17,0 42.18,-4.304 51.03,-12.91 8.84,-8.609 13.27,-24.605 13.27,-47.996 v -35.351 c 0,-23.516 -4.43,-39.61 -13.27,-48.262 -8.85,-8.652 -25.86,-12.981 -51.03,-12.981 h -159.24 c -25.28,0 -42.37,4.329 -51.26,12.981 -8.88,8.652 -13.33,24.746 -13.33,48.262 v 7.109 l 53.13,11.023 v -30.625 h 181.87 v 58.75 h -160.41 c -25.07,0 -41.99,4.309 -50.78,12.942 -8.79,8.625 -13.18,24.66 -13.18,48.094 v 28.683 c 0,23.391 4.39,39.387 13.18,47.996 8.79,8.606 25.71,12.91 50.78,12.91 h 146.31 c 24.3,0 41.05,-4.14 50.27,-12.421 9.22,-8.282 13.83,-22.977 13.83,-44.082 v -5.387 l -53.12,-12.485 v 29.375" /><path
         id="path32"
         style="fill:#64696e;fill-opacity:1;fill-rule:evenodd;stroke:none"
         d="M 1371.75,562.883 H 855.629 l -0.09,-333.039 h 46.402 v 293.332 h 469.809 v 39.707" /><path
         id="path34"
         style="fill:#64696e;fill-opacity:1;fill-rule:evenodd;stroke:none"
         d="M 1565.45,562.883 H 2745.97 V 523.176 H 1565.45 v 39.707" /><path
         id="path36"
         style="fill:#64696e;fill-opacity:1;fill-rule:nonzero;stroke:none"
         d="m 856.27,30.625 v 121.531 h 13.453 V 30.625 H 856.27" /><path
         id="path38"
         style="fill:#64696e;fill-opacity:1;fill-rule:nonzero;stroke:none"
         d="m 909.746,110.84 h 0.32 c 6.161,7.773 12.805,12.312 22.528,12.312 13.453,0 22.203,-7.129 22.203,-23.007 v -69.52 h -12.805 v 65.9453 c 0,9.4067 -3.082,15.7267 -13.453,15.7267 -4.695,0 -9.234,-1.789 -12.637,-5.024 -5.183,-4.707 -5.836,-9.8902 -5.836,-16.3667 V 30.625 h -12.8 v 90.098 h 12.48 v -9.883" /><path
         id="path40"
         style="fill:#64696e;fill-opacity:1;fill-rule:nonzero;stroke:none"
         d="m 993.039,120.723 h 15.071 v -10.86 H 993.199 V 48.4453 c 0,-3.0742 -1.133,-6.9609 5.996,-6.9609 h 8.585 V 30.625 h -14.092 c -7.618,-0.1641 -13.293,1.1328 -13.293,14.7461 v 64.4919 h -12.473 v 10.86 h 12.473 v 24.461 h 12.644 v -24.461" /><path
         id="path42"
         style="fill:#64696e;fill-opacity:1;fill-rule:nonzero;stroke:none"
         d="m 1031.76,85.0664 c 0.49,10.6953 0.81,27.2306 15.72,27.2306 14.91,0 14.26,-16.6915 14.75,-27.2306 z m 31.12,-24.4609 c 0.81,-10.2149 -2.6,-21.5547 -14.91,-21.5547 -17.99,0 -15.88,23.332 -16.21,35.4922 h 43.76 c -0.65,21.0625 0.97,48.609 -28.2,48.609 -23.82,0 -28.84,-28.3551 -28.84,-47.3122 0,-36.2968 12.15,-47.6484 29.16,-47.6484 18.96,0 28.04,14.7461 27.23,32.4141 h -11.99" /><path
         id="path44"
         style="fill:#64696e;fill-opacity:1;fill-rule:nonzero;stroke:none"
         d="m 1095.12,30.625 v 121.531 h 12.81 V 30.625 h -12.81" /><path
         id="path46"
         style="fill:#64696e;fill-opacity:1;fill-rule:nonzero;stroke:none"
         d="m 1131.09,30.625 v 121.531 h 12.8 V 30.625 h -12.8" /><path
         id="path48"
         style="fill:#64696e;fill-opacity:1;fill-rule:nonzero;stroke:none"
         d="m 1167.07,30.625 v 90.098 h 12.79 V 30.625 Z m 0,105.332 v 16.199 h 12.79 v -16.199 h -12.79" /><path
         id="path50"
         style="fill:#64696e;fill-opacity:1;fill-rule:nonzero;stroke:none"
         d="m 1229.61,112.297 c 14.26,0 17.99,-16.8595 17.99,-34.6798 0,-14.4258 0.16,-38.5664 -19.28,-38.5664 -12.64,0 -16.37,14.582 -16.37,36.625 0,12.1445 0.65,36.6212 17.66,36.6212 z m 17.99,-1.789 h -0.33 c -4.37,8.594 -11.82,12.644 -20.09,12.644 -23.82,0 -28.52,-27.8707 -28.52,-46.8356 0,-36.2969 11.83,-48.125 28.84,-48.125 8.27,0 14.1,3.7344 19.45,12.9727 h 0.32 c -0.16,-9.8946 1.95,-30.3047 -18.79,-30.3047 -7.78,0 -12.97,3.0742 -14.1,11.1836 H 1201.9 C 1203.68,6.64063 1214.38,0 1228.8,0 c 9.89,0 19.12,3.5625 24.79,12.4805 6,9.5625 6.81,17.9804 6.81,29.0039 v 79.2386 h -12.8 v -10.215" /><path
         id="path52"
         style="fill:#64696e;fill-opacity:1;fill-rule:nonzero;stroke:none"
         d="m 1292.64,85.0664 c 0.49,10.6953 0.82,27.2306 15.72,27.2306 14.91,0 14.26,-16.6915 14.75,-27.2306 z m 31.12,-24.4609 c 0.81,-10.2149 -2.59,-21.5547 -14.91,-21.5547 -17.99,0 -15.88,23.332 -16.21,35.4922 h 43.75 c -0.64,21.0625 0.98,48.609 -28.19,48.609 -23.82,0 -28.84,-28.3551 -28.84,-47.3122 0,-36.2968 12.15,-47.6484 29.16,-47.6484 18.96,0 28.04,14.7461 27.23,32.4141 h -11.99" /><path
         id="path54"
         style="fill:#64696e;fill-opacity:1;fill-rule:nonzero;stroke:none"
         d="m 1368.64,110.84 h 0.32 c 6.16,7.773 12.81,12.312 22.53,12.312 13.45,0 22.2,-7.129 22.2,-23.007 v -69.52 h -12.8 v 65.9453 c 0,9.4067 -3.08,15.7267 -13.45,15.7267 -4.7,0 -9.24,-1.789 -12.64,-5.024 -5.19,-4.707 -5.84,-9.8902 -5.84,-16.3667 V 30.625 h -12.79 v 90.098 h 12.47 v -9.883" /><path
         id="path56"
         style="fill:#64696e;fill-opacity:1;fill-rule:nonzero;stroke:none"
         d="m 1451.93,120.723 h 15.08 v -10.86 h -14.92 V 48.4453 c 0,-3.0742 -1.13,-6.9609 6,-6.9609 h 8.59 V 30.625 h -14.1 c -7.62,-0.1641 -13.29,1.1328 -13.29,14.7461 v 64.4919 h -12.48 v 10.86 h 12.48 v 24.461 h 12.64 v -24.461" /><path
         id="path58"
         style="fill:#64696e;fill-opacity:1;fill-rule:nonzero;stroke:none"
         d="m 1490.66,85.0664 c 0.49,10.6953 0.81,27.2306 15.72,27.2306 14.91,0 14.26,-16.6915 14.75,-27.2306 z m 31.11,-24.4609 c 0.81,-10.2149 -2.59,-21.5547 -14.9,-21.5547 -17.99,0 -15.89,23.332 -16.21,35.4922 h 43.75 c -0.64,21.0625 0.98,48.609 -28.2,48.609 -23.81,0 -28.83,-28.3551 -28.83,-47.3122 0,-36.2968 12.15,-47.6484 29.16,-47.6484 18.96,0 28.03,14.7461 27.23,32.4141 h -12" /><path
         id="path60"
         style="fill:#64696e;fill-opacity:1;fill-rule:nonzero;stroke:none"
         d="m 1655.94,152.156 h 13.45 V 30.625 h -22.03 l -34.04,97.227 c -1.94,5.507 -3.39,11.015 -4.53,18.312 h -0.33 c 0.17,-6.164 0.33,-12.484 0.33,-18.637 V 30.625 h -13.45 v 121.531 h 21.87 l 34.52,-99.488 c 1.46,-3.7344 2.59,-7.6172 4.21,-13.293 h 0.33 c -0.16,4.375 -0.33,9.0703 -0.33,13.6133 v 99.1677" /><path
         id="path62"
         style="fill:#64696e;fill-opacity:1;fill-rule:nonzero;stroke:none"
         d="m 1702.13,85.0664 c 0.48,10.6953 0.8,27.2306 15.72,27.2306 14.9,0 14.26,-16.6915 14.74,-27.2306 z m 31.11,-24.4609 c 0.81,-10.2149 -2.59,-21.5547 -14.92,-21.5547 -17.97,0 -15.87,23.332 -16.19,35.4922 h 43.75 c -0.65,21.0625 0.97,48.609 -28.2,48.609 -23.82,0 -28.85,-28.3551 -28.85,-47.3122 0,-36.2968 12.16,-47.6484 29.17,-47.6484 18.97,0 28.04,14.7461 27.23,32.4141 h -11.99" /><path
         id="path64"
         style="fill:#64696e;fill-opacity:1;fill-rule:nonzero;stroke:none"
         d="m 1780.39,120.723 h 15.07 v -10.86 h -14.91 V 48.4453 c 0,-3.0742 -1.13,-6.9609 6,-6.9609 h 8.58 V 30.625 h -14.09 c -7.62,-0.1641 -13.29,1.1328 -13.29,14.7461 v 64.4919 h -12.48 v 10.86 h 12.48 v 24.461 h 12.64 v -24.461" /><path
         id="path66"
         style="fill:#64696e;fill-opacity:1;fill-rule:nonzero;stroke:none"
         d="m 1802.75,30.625 v 10.0508 l 41.8,69.5082 h -40.01 v 10.539 h 53.31 v -10.539 l -41.81,-69.0199 h 42.13 V 30.625 h -55.42" /><path
         id="path68"
         style="fill:#64696e;fill-opacity:1;fill-rule:nonzero;stroke:none"
         d="m 1937.73,41.4844 h 0.33 l 15.71,79.2386 h 13.3 l -22.53,-90.098 h -13.29 l -15.23,79.238 h -0.32 l -14.26,-79.238 h -13.29 l -23.17,90.098 h 13.29 l 16.36,-79.2386 h 0.33 l 14.25,79.2386 h 13.29 l 15.23,-79.2386" /><path
         id="path70"
         style="fill:#64696e;fill-opacity:1;fill-rule:nonzero;stroke:none"
         d="m 1990.24,85.0664 c 0.48,10.6953 0.8,27.2306 15.71,27.2306 14.91,0 14.26,-16.6915 14.75,-27.2306 z m 31.1,-24.4609 c 0.81,-10.2149 -2.59,-21.5547 -14.9,-21.5547 -17.99,0 -15.88,23.332 -16.2,35.4922 h 43.75 c -0.65,21.0625 0.97,48.609 -28.2,48.609 -23.82,0 -28.84,-28.3551 -28.84,-47.3122 0,-36.2968 12.15,-47.6484 29.17,-47.6484 18.95,0 28.02,14.7461 27.22,32.4141 h -12" /><path
         id="path72"
         style="fill:#64696e;fill-opacity:1;fill-rule:nonzero;stroke:none"
         d="m 2067.37,105.977 h 0.32 c 5.34,11.824 12.96,16.855 26.42,15.711 v -12.637 c -16.54,2.922 -26.26,-7.449 -26.26,-23.8166 V 30.625 h -12.8 v 90.098 h 12.32 v -14.746" /><path
         id="path74"
         style="fill:#64696e;fill-opacity:1;fill-rule:nonzero;stroke:none"
         d="m 2107.07,30.625 v 121.531 h 12.8 V 78.75 h 0.32 l 30.79,41.973 h 15.23 l -27.87,-35.0003 28.68,-55.0977 h -14.91 l -22.52,44.8828 -9.72,-12.8008 V 30.625 h -12.8" /><path
         id="path76"
         style="fill:#64696e;fill-opacity:1;fill-rule:nonzero;stroke:none"
         d="m 2179.5,30.625 v 121.531 h 12.8 V 30.625 h -12.8" /><path
         id="path78"
         style="fill:#64696e;fill-opacity:1;fill-rule:nonzero;stroke:none"
         d="m 2263.27,74.6953 c 0,-21.2187 -3.72,-35.6445 -18.96,-35.6445 -14.91,0 -18.95,14.4258 -18.95,35.6445 0,27.2307 5.83,37.6017 18.95,37.6017 13.45,0 18.96,-10.371 18.96,-37.6017 z m 13.29,4.0547 c 0,27.227 -10.05,44.402 -32.25,44.402 -22.2,0 -32.24,-17.175 -32.24,-44.402 0,-38.8867 12.8,-50.5586 32.24,-50.5586 19.77,0 32.25,11.5039 32.25,50.5586 z m -50.72,73.406 v -16.199 h 12.8 v 16.199 z m 37.11,-16.199 v 16.199 h -12.81 v -16.199 h 12.81" /><path
         id="path80"
         style="fill:#64696e;fill-opacity:1;fill-rule:nonzero;stroke:none"
         d="m 2333.92,96.5703 c 0.49,10.7027 -3.4,15.7267 -14.26,15.7267 -9.07,0 -14.25,-4.211 -14.25,-13.6173 0,-11.668 9.55,-13.125 18.3,-16.8555 12.97,-5.8281 25.93,-9.0703 25.93,-25.9179 0,-17.1758 -11.99,-27.8672 -30.46,-27.7149 -7.95,-0.1523 -17.67,2.6016 -22.37,9.4063 -5.34,7.1289 -5.02,13.125 -5.02,19.2773 h 12.15 c -0.48,-11.0156 3.24,-17.8242 15.24,-17.8242 10.37,0 17.17,4.2109 17.17,15.2383 0,12.7929 -12.97,13.9336 -22.19,17.8203 -13.94,5.1875 -22.05,9.8828 -22.05,25.6054 0,15.5552 10.86,25.4372 26.42,25.4372 17.82,0 28.19,-8.101 27.87,-26.5817 h -12.48" /><path
         id="path82"
         style="fill:#64696e;fill-opacity:1;fill-rule:nonzero;stroke:none"
         d="m 2412.67,42.4492 h -0.32 c -4.38,-9.2265 -12.64,-14.2578 -21.39,-14.2578 -13.46,0 -21.72,7.1289 -21.72,23.0078 v 69.5238 h 12.81 V 50.7227 c 0,-7.6172 2.43,-11.6719 11.5,-11.6719 6.16,0 11.83,2.7539 15.39,7.9414 2.92,4.5391 3.73,10.6914 3.73,15.8789 v 57.8519 h 12.8 V 30.625 h -12.8 v 11.8242" /><path
         id="path84"
         style="fill:#64696e;fill-opacity:1;fill-rule:nonzero;stroke:none"
         d="m 2462.09,110.84 h 0.33 c 6.16,7.773 12.8,12.312 22.53,12.312 13.44,0 22.19,-7.129 22.19,-23.007 v -69.52 h -12.8 v 65.9453 c 0,9.4067 -3.07,15.7267 -13.45,15.7267 -4.69,0 -9.23,-1.789 -12.63,-5.024 -5.19,-4.707 -5.84,-9.8902 -5.84,-16.3667 V 30.625 h -12.81 v 90.098 h 12.48 v -9.883" /><path
         id="path86"
         style="fill:#64696e;fill-opacity:1;fill-rule:nonzero;stroke:none"
         d="m 2557.05,112.297 c 14.26,0 17.99,-16.8595 17.99,-34.6798 0,-14.4258 0.16,-38.5664 -19.28,-38.5664 -12.64,0 -16.37,14.582 -16.37,36.625 0,12.1445 0.65,36.6212 17.66,36.6212 z m 17.99,-1.789 h -0.33 c -4.37,8.594 -11.82,12.644 -20.08,12.644 -23.83,0 -28.53,-27.8707 -28.53,-46.8356 0,-36.2969 11.83,-48.125 28.85,-48.125 8.26,0 14.1,3.7344 19.44,12.9727 h 0.32 c -0.16,-9.8946 1.95,-30.3047 -18.79,-30.3047 -7.78,0 -12.97,3.0742 -14.1,11.1836 h -12.48 C 2531.13,6.64063 2541.82,0 2556.25,0 c 9.88,0 19.12,3.5625 24.79,12.4805 6,9.5625 6.81,17.9804 6.81,29.0039 v 79.2386 h -12.81 v -10.215" /><path
         id="path88"
         style="fill:#64696e;fill-opacity:1;fill-rule:nonzero;stroke:none"
         d="m 2620.09,85.0664 c 0.48,10.6953 0.81,27.2306 15.71,27.2306 14.92,0 14.26,-16.6915 14.75,-27.2306 z m 31.12,-24.4609 c 0.8,-10.2149 -2.6,-21.5547 -14.92,-21.5547 -17.99,0 -15.88,23.332 -16.2,35.4922 h 43.75 c -0.65,21.0625 0.97,48.609 -28.19,48.609 -23.83,0 -28.85,-28.3551 -28.85,-47.3122 0,-36.2968 12.15,-47.6484 29.17,-47.6484 18.96,0 28.03,14.7461 27.22,32.4141 h -11.98" /><path
         id="path90"
         style="fill:#64696e;fill-opacity:1;fill-rule:nonzero;stroke:none"
         d="m 2696.09,110.84 h 0.32 c 6.15,7.773 12.8,12.312 22.52,12.312 13.46,0 22.21,-7.129 22.21,-23.007 v -69.52 h -12.8 v 65.9453 c 0,9.4067 -3.09,15.7267 -13.46,15.7267 -4.7,0 -9.23,-1.789 -12.64,-5.024 -5.19,-4.707 -5.83,-9.8902 -5.83,-16.3667 V 30.625 h -12.8 v 90.098 h 12.48 v -9.883" /></g></g></svg>
