<?xml version="1.0" encoding="iso-8859-1"?>
<svg version="1.1" id="Layer_1" xmlns="http://www.w3.org/2000/svg" xmlns:xlink="http://www.w3.org/1999/xlink" x="0px" y="0px"
	 viewBox="0 0 512 512" xml:space="preserve">
<g>
	<g>
		<path d="M408.696,113.04c-29.269-34.746-74.379-53.92-134.248-57.127c3.212-14.295,10.416-23.011,16.816-26.485L275.291,0
			c-18.37,9.971-30.98,30.6-34.805,55.781c-61.335,2.732-107.448,21.952-137.192,57.265
			c-46.253,54.913-34.362,127.57-33.833,130.636l2.396,13.896h28.971c-0.723,28.427-2.684,112.872,30.966,168.324
			c37.611,61.955,116.473,83.996,119.813,84.904l4.394,1.194l4.394-1.195c3.338-0.907,82.183-22.949,119.812-84.908
			c33.636-55.448,31.671-139.894,30.948-168.319h28.991l2.395-13.898C443.071,240.612,454.954,167.954,408.696,113.04z
			 M351.584,408.522c-26.095,42.968-79.92,63.408-95.604,68.606c-15.718-5.168-69.358-25.44-95.561-68.602
			c-28.737-47.355-26.756-125.042-26.105-150.571c0.003-0.133,0.007-0.248,0.01-0.378H377.66c0.003,0.133,0.007,0.249,0.01,0.383
			C378.321,283.489,380.304,361.177,351.584,408.522z M410.669,224.093H101.336c-0.63-20.45,2.112-59.426,27.756-89.699
			c25.565-30.18,68.265-45.483,126.91-45.483c58.638,0,101.333,15.302,126.899,45.48
			C408.555,164.672,411.295,203.661,410.669,224.093z"/>
	</g>
</g>
<g>
	<g>
		<path d="M356.444,315.654l-33.468,1c0.796,26.605-4.678,62.064-35.274,79.91l16.869,28.923
			C339.531,405.097,357.953,366.091,356.444,315.654z"/>
	</g>
</g>
<g>
</g>
<g>
</g>
<g>
</g>
<g>
</g>
<g>
</g>
<g>
</g>
<g>
</g>
<g>
</g>
<g>
</g>
<g>
</g>
<g>
</g>
<g>
</g>
<g>
</g>
<g>
</g>
<g>
</g>
</svg>
