<svg xmlns="http://www.w3.org/2000/svg" version="1.1" xmlns:xlink="http://www.w3.org/1999/xlink" preserveAspectRatio="none" x="0px" y="0px" viewBox="0 0 358 106" id="el_nnknr6D6G"><style>@-webkit-keyframes kf_el_7uMV5uh5Z9r_an_0v4sU9_lv{0%{-webkit-transform: translate(-0.001434326171875px, -0.019046783447265625px) translate(0.001434326171875px, 0.019046783447265625px) translate(200px, 0px);transform: translate(-0.001434326171875px, -0.019046783447265625px) translate(0.001434326171875px, 0.019046783447265625px) translate(200px, 0px);}13.33%{-webkit-transform: translate(-0.001434326171875px, -0.019046783447265625px) translate(0.001434326171875px, 0.019046783447265625px) translate(-15px, 0px);transform: translate(-0.001434326171875px, -0.019046783447265625px) translate(0.001434326171875px, 0.019046783447265625px) translate(-15px, 0px);}20%{-webkit-transform: translate(-0.001434326171875px, -0.019046783447265625px) translate(0.001434326171875px, 0.019046783447265625px) translate(-15px, 0px);transform: translate(-0.001434326171875px, -0.019046783447265625px) translate(0.001434326171875px, 0.019046783447265625px) translate(-15px, 0px);}40%{-webkit-transform: translate(-0.001434326171875px, -0.019046783447265625px) translate(0.001434326171875px, 0.019046783447265625px) translate(0px, 0px);transform: translate(-0.001434326171875px, -0.019046783447265625px) translate(0.001434326171875px, 0.019046783447265625px) translate(0px, 0px);}100%{-webkit-transform: translate(-0.001434326171875px, -0.019046783447265625px) translate(0.001434326171875px, 0.019046783447265625px) translate(0px, 0px);transform: translate(-0.001434326171875px, -0.019046783447265625px) translate(0.001434326171875px, 0.019046783447265625px) translate(0px, 0px);}}@keyframes kf_el_7uMV5uh5Z9r_an_0v4sU9_lv{0%{-webkit-transform: translate(-0.001434326171875px, -0.019046783447265625px) translate(0.001434326171875px, 0.019046783447265625px) translate(200px, 0px);transform: translate(-0.001434326171875px, -0.019046783447265625px) translate(0.001434326171875px, 0.019046783447265625px) translate(200px, 0px);}13.33%{-webkit-transform: translate(-0.001434326171875px, -0.019046783447265625px) translate(0.001434326171875px, 0.019046783447265625px) translate(-15px, 0px);transform: translate(-0.001434326171875px, -0.019046783447265625px) translate(0.001434326171875px, 0.019046783447265625px) translate(-15px, 0px);}20%{-webkit-transform: translate(-0.001434326171875px, -0.019046783447265625px) translate(0.001434326171875px, 0.019046783447265625px) translate(-15px, 0px);transform: translate(-0.001434326171875px, -0.019046783447265625px) translate(0.001434326171875px, 0.019046783447265625px) translate(-15px, 0px);}40%{-webkit-transform: translate(-0.001434326171875px, -0.019046783447265625px) translate(0.001434326171875px, 0.019046783447265625px) translate(0px, 0px);transform: translate(-0.001434326171875px, -0.019046783447265625px) translate(0.001434326171875px, 0.019046783447265625px) translate(0px, 0px);}100%{-webkit-transform: translate(-0.001434326171875px, -0.019046783447265625px) translate(0.001434326171875px, 0.019046783447265625px) translate(0px, 0px);transform: translate(-0.001434326171875px, -0.019046783447265625px) translate(0.001434326171875px, 0.019046783447265625px) translate(0px, 0px);}}@-webkit-keyframes kf_el_LsXDkQyBNey_an_m9zW8O8vP{0%{-webkit-transform: translate(0px, -0.011249542236328125px) translate(0px, 0.011249542236328125px) translate(-134px, 0px);transform: translate(0px, -0.011249542236328125px) translate(0px, 0.011249542236328125px) translate(-134px, 0px);}13.33%{-webkit-transform: translate(0px, -0.011249542236328125px) translate(0px, 0.011249542236328125px) translate(15px, 0px);transform: translate(0px, -0.011249542236328125px) translate(0px, 0.011249542236328125px) translate(15px, 0px);}20%{-webkit-transform: translate(0px, -0.011249542236328125px) translate(0px, 0.011249542236328125px) translate(15px, 0px);transform: translate(0px, -0.011249542236328125px) translate(0px, 0.011249542236328125px) translate(15px, 0px);}40%{-webkit-transform: translate(0px, -0.011249542236328125px) translate(0px, 0.011249542236328125px) translate(0px, 0px);transform: translate(0px, -0.011249542236328125px) translate(0px, 0.011249542236328125px) translate(0px, 0px);}100%{-webkit-transform: translate(0px, -0.011249542236328125px) translate(0px, 0.011249542236328125px) translate(0px, 0px);transform: translate(0px, -0.011249542236328125px) translate(0px, 0.011249542236328125px) translate(0px, 0px);}}@keyframes kf_el_LsXDkQyBNey_an_m9zW8O8vP{0%{-webkit-transform: translate(0px, -0.011249542236328125px) translate(0px, 0.011249542236328125px) translate(-134px, 0px);transform: translate(0px, -0.011249542236328125px) translate(0px, 0.011249542236328125px) translate(-134px, 0px);}13.33%{-webkit-transform: translate(0px, -0.011249542236328125px) translate(0px, 0.011249542236328125px) translate(15px, 0px);transform: translate(0px, -0.011249542236328125px) translate(0px, 0.011249542236328125px) translate(15px, 0px);}20%{-webkit-transform: translate(0px, -0.011249542236328125px) translate(0px, 0.011249542236328125px) translate(15px, 0px);transform: translate(0px, -0.011249542236328125px) translate(0px, 0.011249542236328125px) translate(15px, 0px);}40%{-webkit-transform: translate(0px, -0.011249542236328125px) translate(0px, 0.011249542236328125px) translate(0px, 0px);transform: translate(0px, -0.011249542236328125px) translate(0px, 0.011249542236328125px) translate(0px, 0px);}100%{-webkit-transform: translate(0px, -0.011249542236328125px) translate(0px, 0.011249542236328125px) translate(0px, 0px);transform: translate(0px, -0.011249542236328125px) translate(0px, 0.011249542236328125px) translate(0px, 0px);}}@-webkit-keyframes kf_el_mqxqyX3VZ6_an_DGqZvtpEh{0%{-webkit-transform: translate(0px, 0px) translate(0px, 0px) translate(0px, -81px);transform: translate(0px, 0px) translate(0px, 0px) translate(0px, -81px);}20%{-webkit-transform: translate(0px, 0px) translate(0px, 0px) translate(0px, -81px);transform: translate(0px, 0px) translate(0px, 0px) translate(0px, -81px);}40%{-webkit-transform: translate(0px, 0px) translate(0px, 0px) translate(0px, 0px);transform: translate(0px, 0px) translate(0px, 0px) translate(0px, 0px);}100%{-webkit-transform: translate(0px, 0px) translate(0px, 0px) translate(0px, 0px);transform: translate(0px, 0px) translate(0px, 0px) translate(0px, 0px);}}@keyframes kf_el_mqxqyX3VZ6_an_DGqZvtpEh{0%{-webkit-transform: translate(0px, 0px) translate(0px, 0px) translate(0px, -81px);transform: translate(0px, 0px) translate(0px, 0px) translate(0px, -81px);}20%{-webkit-transform: translate(0px, 0px) translate(0px, 0px) translate(0px, -81px);transform: translate(0px, 0px) translate(0px, 0px) translate(0px, -81px);}40%{-webkit-transform: translate(0px, 0px) translate(0px, 0px) translate(0px, 0px);transform: translate(0px, 0px) translate(0px, 0px) translate(0px, 0px);}100%{-webkit-transform: translate(0px, 0px) translate(0px, 0px) translate(0px, 0px);transform: translate(0px, 0px) translate(0px, 0px) translate(0px, 0px);}}#el_nnknr6D6G *{-webkit-animation-duration: 5s;animation-duration: 5s;-webkit-animation-iteration-count: infinite;animation-iteration-count: infinite;-webkit-animation-timing-function: cubic-bezier(0, 0, 1, 1);animation-timing-function: cubic-bezier(0, 0, 1, 1);}#el_mqxqyX3VZ6{-webkit-transform: matrix(, 1.6758880615234375,, 0,, 0,, 1.6758880615234375,, 157.05,2.05);transform: matrix(, 1.6758880615234375,, 0,, 0,, 1.6758880615234375,, 157.05,2.05);}#el_v5W3tR85uD{-webkit-transform: matrix(, 1,, 0,, 0,, 1,, -93.75,0);transform: matrix(, 1,, 0,, 0,, 1,, -93.75,0);}#el_o4auLqbUxl{-webkit-transform: matrix(, 1,, 0,, 0,, 1,, -93.75,0);transform: matrix(, 1,, 0,, 0,, 1,, -93.75,0);}#el_QELk9wMz0L{-webkit-transform: matrix(, 1,, 0,, 0,, 1,, -93.75,0);transform: matrix(, 1,, 0,, 0,, 1,, -93.75,0);}#el_t01dDsD_Si{-webkit-transform: matrix(, 1,, 0,, 0,, 1,, -93.75,0);transform: matrix(, 1,, 0,, 0,, 1,, -93.75,0);}#el_YQ-WhEqyiB{-webkit-transform: matrix(, 1,, 0,, 0,, 1,, -93.75,0);transform: matrix(, 1,, 0,, 0,, 1,, -93.75,0);}#el_0AahjtcEQQ{-webkit-transform: matrix(, 1,, 0,, 0,, 1,, -93.75,0);transform: matrix(, 1,, 0,, 0,, 1,, -93.75,0);}#el_Jttqx3bSyy{-webkit-transform: matrix(, 1,, 0,, 0,, 1,, -93.75,0);transform: matrix(, 1,, 0,, 0,, 1,, -93.75,0);}#el_CR7HrRRZcu3{-webkit-transform: matrix(, 1,, 0,, 0,, 1,, 53.85,26.9);transform: matrix(, 1,, 0,, 0,, 1,, 53.85,26.9);}#el_5euVJ70V1ij{-webkit-transform: matrix(, 1,, 0,, 0,, 1,, 0,0);transform: matrix(, 1,, 0,, 0,, 1,, 0,0);}#el_iqapRgJdVAm{-webkit-transform: matrix(, 1,, 0,, 0,, 1,, -93.75,0);transform: matrix(, 1,, 0,, 0,, 1,, -93.75,0);}#el_LsXDkQyBNey{-webkit-transform: matrix(, 1.6758880615234375,, 0,, 0,, 1.6758880615234375,, 0.3,104.5);transform: matrix(, 1.6758880615234375,, 0,, 0,, 1.6758880615234375,, 0.3,104.5);}#el__2iNF0-r-8M{-webkit-transform: matrix(, 1,, 0,, 0,, 1,, 0,-63.1);transform: matrix(, 1,, 0,, 0,, 1,, 0,-63.1);}#el_i-IKVUcu_bz{-webkit-transform: matrix(, 1,, 0,, 0,, 1,, 0,-63.1);transform: matrix(, 1,, 0,, 0,, 1,, 0,-63.1);}#el_yWfYmLx2YTl{-webkit-transform: matrix(, 1,, 0,, 0,, 1,, 0,-63.1);transform: matrix(, 1,, 0,, 0,, 1,, 0,-63.1);}#el_TEKOBqjaZxA{-webkit-transform: matrix(, 1,, 0,, 0,, 1,, 0,-63.1);transform: matrix(, 1,, 0,, 0,, 1,, 0,-63.1);}#el_7uMV5uh5Z9r{-webkit-transform: matrix(, 1.6758880615234375,, 0,, 0,, 1.6758880615234375,, 264.65,103.5);transform: matrix(, 1.6758880615234375,, 0,, 0,, 1.6758880615234375,, 264.65,103.5);}#el_MvJYX7zg3X-{-webkit-transform: matrix(, 1,, 0,, 0,, 1,, -158.7,-62.8);transform: matrix(, 1,, 0,, 0,, 1,, -158.7,-62.8);}#el_i73EbYzukoL{-webkit-transform: matrix(, 1,, 0,, 0,, 1,, -158.7,-62.8);transform: matrix(, 1,, 0,, 0,, 1,, -158.7,-62.8);}#el_17-wspyxQNn{-webkit-transform: matrix(, 1,, 0,, 0,, 1,, -158.7,-62.8);transform: matrix(, 1,, 0,, 0,, 1,, -158.7,-62.8);}#el_UPQ2ii5wCEY{-webkit-transform: matrix(, 1,, 0,, 0,, 1,, -158.7,-62.8);transform: matrix(, 1,, 0,, 0,, 1,, -158.7,-62.8);}#el_nMo0PtTDTCq{-webkit-transform: matrix(, 1,, 0,, 0,, 1,, -158.7,-62.8);transform: matrix(, 1,, 0,, 0,, 1,, -158.7,-62.8);}#el_LsXDkQyBNey_an_4ji72uigE{-webkit-transform: translate(0px, -0.011249542236328125px) translate(0px, 0.011249542236328125px) translate(-134px, 0px);transform: translate(0px, -0.011249542236328125px) translate(0px, 0.011249542236328125px) translate(-134px, 0px);}#el_7uMV5uh5Z9r_an_robiaOesj{-webkit-transform: translate(-0.001434326171875px, -0.019046783447265625px) translate(0.001434326171875px, 0.019046783447265625px) translate(200px, 0px);transform: translate(-0.001434326171875px, -0.019046783447265625px) translate(0.001434326171875px, 0.019046783447265625px) translate(200px, 0px);}#el_mqxqyX3VZ6_an_NAcN54oEn{-webkit-transform: translate(0px, 0px) translate(0px, 0px) translate(0px, -81px);transform: translate(0px, 0px) translate(0px, 0px) translate(0px, -81px);}#el_fcNMeXGVQRK_an_CESV0YALl{-webkit-transform: translate(241.8000030517578px, 63.04999923706055px) translate(-241.8000030517578px, -63.04999923706055px) translate(0px, -15px);transform: translate(241.8000030517578px, 63.04999923706055px) translate(-241.8000030517578px, -63.04999923706055px) translate(0px, -15px);}#el_PesPLKRnQtG_an_NVAzSM_O6{-webkit-transform: translate(158.6985626220703px, 62.78095245361328px) translate(-158.6985626220703px, -62.78095245361328px) translate(0px, -15px);transform: translate(158.6985626220703px, 62.78095245361328px) translate(-158.6985626220703px, -62.78095245361328px) translate(0px, -15px);}#el_mqxqyX3VZ6_an_DGqZvtpEh{-webkit-animation-fill-mode: backwards;animation-fill-mode: backwards;-webkit-transform: translate(0px, 0px) translate(0px, 0px) translate(0px, -81px);transform: translate(0px, 0px) translate(0px, 0px) translate(0px, -81px);-webkit-animation-name: kf_el_mqxqyX3VZ6_an_DGqZvtpEh;animation-name: kf_el_mqxqyX3VZ6_an_DGqZvtpEh;-webkit-animation-timing-function: cubic-bezier(0, 0, 1, 1);animation-timing-function: cubic-bezier(0, 0, 1, 1);}#el_LsXDkQyBNey_an_m9zW8O8vP{-webkit-animation-fill-mode: backwards;animation-fill-mode: backwards;-webkit-transform: translate(0px, -0.011249542236328125px) translate(0px, 0.011249542236328125px) translate(-134px, 0px);transform: translate(0px, -0.011249542236328125px) translate(0px, 0.011249542236328125px) translate(-134px, 0px);-webkit-animation-name: kf_el_LsXDkQyBNey_an_m9zW8O8vP;animation-name: kf_el_LsXDkQyBNey_an_m9zW8O8vP;-webkit-animation-timing-function: cubic-bezier(0, 0, 1, 1);animation-timing-function: cubic-bezier(0, 0, 1, 1);}#el_7uMV5uh5Z9r_an_0v4sU9_lv{-webkit-animation-fill-mode: backwards;animation-fill-mode: backwards;-webkit-transform: translate(-0.001434326171875px, -0.019046783447265625px) translate(0.001434326171875px, 0.019046783447265625px) translate(200px, 0px);transform: translate(-0.001434326171875px, -0.019046783447265625px) translate(0.001434326171875px, 0.019046783447265625px) translate(200px, 0px);-webkit-animation-name: kf_el_7uMV5uh5Z9r_an_0v4sU9_lv;animation-name: kf_el_7uMV5uh5Z9r_an_0v4sU9_lv;-webkit-animation-timing-function: cubic-bezier(0, 0, 1, 1);animation-timing-function: cubic-bezier(0, 0, 1, 1);}</style>
<defs>
<linearGradient id="Gradient_1" gradientUnits="userSpaceOnUse" x1="171.7375" y1="82.325" x2="118.0625" y2="29.974999999999998" spreadMethod="pad">
<stop offset="0%" stop-color="#FBBA00"/>

<stop offset="100%" stop-color="#E94C15"/>
</linearGradient>

<linearGradient id="Gradient_2" gradientUnits="userSpaceOnUse" x1="178.63750000000002" y1="89.375" x2="124.9625" y2="37.025000000000006" spreadMethod="pad">
<stop offset="0%" stop-color="#FBBA00"/>

<stop offset="100%" stop-color="#E94C15"/>
</linearGradient>

<linearGradient id="Gradient_3" gradientUnits="userSpaceOnUse" x1="172.0875" y1="82.675" x2="118.4125" y2="30.325" spreadMethod="pad">
<stop offset="0%" stop-color="#FBBA00"/>

<stop offset="100%" stop-color="#E94C15"/>
</linearGradient>

<linearGradient id="Gradient_4" gradientUnits="userSpaceOnUse" x1="132.1625" y1="53.675" x2="98.1375" y2="3.8249999999999993" spreadMethod="pad">
<stop offset="0%" stop-color="#FBBA00"/>

<stop offset="100%" stop-color="#E94C15"/>
</linearGradient>

<linearGradient id="Gradient_5" gradientUnits="userSpaceOnUse" x1="119.6125" y1="45.125" x2="85.58749999999999" y2="-4.725000000000001" spreadMethod="pad">
<stop offset="0%" stop-color="#FBBA00"/>

<stop offset="100%" stop-color="#E94C15"/>
</linearGradient>

<radialGradient id="Gradient_6" gradientUnits="userSpaceOnUse" cx="0" cy="0" r="11.537499999999998" fx="0" fy="0" gradientTransform="matrix( 1.0000000000000002, 0, 0, 1.0000000000000002, 26.95,24.95) " spreadMethod="pad">
<stop offset="0%" stop-color="#FFFFFF"/>

<stop offset="23.137254901960784%" stop-color="#FFFFFF" stop-opacity="0.7098039215686275"/>

<stop offset="54.11764705882353%" stop-color="#FFFFFF" stop-opacity="0.32941176470588235"/>

<stop offset="76.07843137254902%" stop-color="#FFFFFF" stop-opacity="0.08627450980392157"/>

<stop offset="87.05882352941177%" stop-color="#FFFFFF" stop-opacity="0"/>
</radialGradient>

<g id="Symbol_2_0_Layer0_0_FILL">
<path fill="#191917" stroke="none" d="&#10;M 147.6 27.95&#10;L 155 27.95&#10;Q 155 24.9 152.85 22.7 150.7 20.55 147.6 20.55&#10;L 147.6 27.95 Z"/>
</g>

<g id="Symbol_2_0_Layer0_1_FILL">
<path fill="url(#Gradient_1)" stroke="none" d="&#10;M 174.55 53.85&#10;Q 174.55 42.7 166.65 34.8 158.75 26.9 147.6 26.9&#10;L 147.6 53.85 174.55 53.85 Z"/>
</g>

<g id="Symbol_2_0_Layer0_2_FILL">
<path fill="#1A1A18" stroke="none" d="&#10;M 163.15 44.3&#10;Q 164 44.3 164.6 43.7 165.15 43.15 165.15 42.3 165.15 41.45 164.6 40.9 164 40.3 163.15 40.3 162.35 40.3 161.75 40.9 161.15 41.5 161.15 42.3 161.15 43.15 161.75 43.7 162.35 44.3 163.15 44.3 Z"/>
</g>

<g id="Symbol_2_0_Layer0_3_FILL">
<path fill="url(#Gradient_2)" stroke="none" d="&#10;M 147.6 80.1&#10;Q 147.846875 69.403125 155.5 61.75 163.153125 54.096875 173.85 53.85&#10;L 147.6 53.85 147.6 80.1 Z"/>
</g>

<g id="Symbol_2_0_Layer0_4_FILL">
<path fill="url(#Gradient_3)" stroke="none" d="&#10;M 147.6 80.8&#10;L 147.6 53.85 120.65 53.85&#10;Q 120.65 65 128.55 72.9 136.45 80.8 147.6 80.8 Z"/>
</g>

<g id="Symbol_2_0_Layer0_5_FILL">
<path fill="url(#Gradient_4)" stroke="none" d="&#10;M 120.65 26.9&#10;L 93.75 26.9&#10;Q 93.75 38.05 101.65 45.95 109.5 53.85 120.65 53.85&#10;L 120.65 26.9 Z"/>
</g>

<g id="Symbol_2_0_Layer0_6_FILL">
<path fill="url(#Gradient_5)" stroke="none" d="&#10;M 93.75 26.9&#10;L 120.65 26.9&#10;Q 120.65 15.75 112.75 7.9 104.9 0 93.75 0&#10;L 93.75 26.9 Z"/>
</g>

<g id="Mask_RZ_Datagerry_RGB_svg_Ebene_1__Clip_Group__0_2_MASK_0_FILL">
<path fill="#FFFFFF" stroke="none" d="&#10;M 7.9 34.85&#10;Q 15.8 26.95 26.95 26.95 26.95 15.8 19.05 7.9 11.2 0 0 0&#10;L 0 53.2&#10;Q 0.246875 42.503125 7.9 34.85 Z"/>
</g>

<g id="RZ_Datagerry_RGB_svg_Ebene_1__Clip_Group__0_Layer2_0_MEMBER_0_FILL">
<path fill="url(#Gradient_6)" stroke="none" d="&#10;M 26.95 13.4&#10;Q 22.15 13.4 18.8 16.8 15.4 20.2 15.4 24.95 15.4 29.75 18.8 33.15 22.15 36.5 26.95 36.5 31.7 36.5 35.1 33.15 38.5 29.75 38.5 24.95 38.5 20.2 35.1 16.8 31.7 13.4 26.95 13.4 Z"/>
</g>

<g id="Symbol_2_0_Layer0_8_FILL">
<path fill="#1A1A18" stroke="none" d="&#10;M 174.55 49.85&#10;Q 173.75 49.85 173.15 50.45 172.55 51.05 172.55 51.85 172.55 52.7 173.15 53.25 173.75 53.85 174.55 53.85 175.4 53.85 175.95 53.25 176.55 52.7 176.55 51.85 176.55 51.05 175.95 50.45 175.4 49.85 174.55 49.85 Z"/>
</g>

<g id="Data_0_Layer0_0_FILL">
<path fill="#191918" stroke="none" d="&#10;M 29.7 69.45&#10;Q 27.05 66.4 23.3 64.8 18.9 62.95 14.3 63.1&#10;L 0 63.1 0 106.6 14.25 106.6&#10;Q 18.55 106.7 22.75 105.05 26.6 103.5 29.25 100.6 32 97.65 33.35 93.75 34.85 89.4 34.85 84.8 34.85 80.55 33.55 76.35 32.35 72.55 29.7 69.45&#10;M 21.95 66.95&#10;Q 25.1 68.25 27.55 70.95 29.85 73.5 31.05 77.05 32.3 80.9 32.2 84.8 32.3 88.65 31.05 92.5 30 95.95 27.65 98.65 25.3 101.3 22.05 102.65 18.35 104.25 14.3 104.15&#10;L 2.6 104.15 2.6 65.5 14.3 65.5&#10;Q 18.4 65.5 21.95 66.95 Z"/>
</g>

<g id="Data_0_Layer0_1_FILL">
<path fill="#191918" stroke="none" d="&#10;M 53.95 63.1&#10;L 51.75 63.1 33 106.6 35.85 106.6 42.2 91.75 63.45 91.75 69.8 106.6 72.6 106.6 53.95 63.1&#10;M 52.8 66.65&#10;L 62.6 89.45 43 89.45 52.8 66.65 Z"/>
</g>

<g id="Data_0_Layer0_2_FILL">
<path fill="#191918" stroke="none" d="&#10;M 101.15 65.5&#10;L 101.15 63.1 66.3 63.1 66.3 65.5 82.4 65.5 82.4 106.6 85 106.6 85 65.5 101.15 65.5 Z"/>
</g>

<g id="Data_0_Layer0_3_FILL">
<path fill="#191918" stroke="none" d="&#10;M 115.6 63.1&#10;L 113.45 63.1 94.7 106.6 97.55 106.6 103.95 91.75 125.2 91.75 131.55 106.6 134.35 106.6 115.6 63.1&#10;M 104.7 89.45&#10;L 114.5 66.65 124.25 89.45 104.7 89.45 Z"/>
</g>

<g id="Symbol_1_0_Layer0_0_FILL">
<path fill="#191917" stroke="none" d="&#10;M 197.85 72.3&#10;Q 195.5 67.8 191 65.3 186.55 63 181.5 62.8 176.5 62.6 171.8 64.5 165.8 67.05 162.2 72.55 158.65 78.05 158.7 84.55 158.65 89.3 160.35 93.65 161.85 97.55 164.85 100.7 167.7 103.7 171.5 105.3 175.4 106.9 179.6 106.9 186.05 106.9 190.7 102.7&#10;L 190.7 106.6 199.45 106.6 199.45 83.6 182.35 83.6 182.35 91.35 190.7 91.35 190.7 92.35&#10;Q 186.2 97.55 180.45 97.55 178.2 97.6 175.95 96.65 173.9 95.65 172.4 94 170.85 92.1 170.1 90 169.25 87.65 169.25 84.9 169.25 82.3 170.05 79.9 170.75 77.65 172.25 75.85 173.6 74.15 175.65 73.15 177.7 72.1 180.05 72.15 183.25 72.15 185.9 73.7 188.6 75.35 190 78.1&#10;L 190.15 78.4 197.95 72.5 197.85 72.3 Z"/>
</g>

<g id="Symbol_1_0_Layer0_1_FILL">
<path fill="#191917" stroke="none" d="&#10;M 235.65 72.3&#10;L 235.65 63.1 205.5 63.1 205.5 106.6 236.25 106.6 236.25 97.4 215.9 97.4 215.9 88.75 232.9 88.75 232.9 80.15 215.9 80.15 215.9 72.3 235.65 72.3 Z"/>
</g>

<g id="Symbol_1_0_Layer0_2_FILL">
<path fill="#191917" stroke="none" d="&#10;M 274.65 72.5&#10;Q 273.6 69.85 271.65 67.75 269.75 65.65 267.15 64.4 264.45 63.05 261.4 63.05&#10;L 241.8 63.05 241.8 106.6 252.2 106.6 252.2 92.75 258.3 92.75 266.5 106.5 266.55 106.6 278.35 106.6 268.8 90.45&#10;Q 270.45 89.45 271.55 88.3 272.85 87.1 273.85 85.3 274.65 83.8 275.25 81.8 275.75 79.65 275.75 77.85 275.75 75.15 274.65 72.5&#10;M 252.2 72.3&#10;L 260.75 72.3&#10;Q 262.55 72.4 263.75 73.8 265.25 75.6 265.15 77.9 265.25 80.2 263.95 82 262.9 83.55 261.1 83.55&#10;L 252.25 83.55 252.2 72.3 Z"/>
</g>

<g id="Symbol_1_0_Layer0_3_FILL">
<path fill="#191917" stroke="none" d="&#10;M 315.25 72.5&#10;Q 314.2 69.85 312.25 67.75 310.2 65.55 307.75 64.4 305.05 63.05 302 63.05&#10;L 282.4 63.05 282.4 106.6 292.85 106.6 292.85 92.75 298.95 92.75 307.1 106.5 307.2 106.6 318.95 106.6 309.4 90.45&#10;Q 311.05 89.45 312.15 88.3 313.4 87.1 314.4 85.3 315.25 83.85 315.85 81.8 316.35 79.95 316.35 77.85 316.35 75.15 315.25 72.5&#10;M 292.8 72.3&#10;L 301.35 72.3&#10;Q 303.25 72.4 304.35 73.8 305.9 75.6 305.75 77.9 305.85 80.2 304.55 82 303.5 83.55 301.7 83.55&#10;L 292.85 83.55 292.8 72.3 Z"/>
</g>

<g id="Symbol_1_0_Layer0_4_FILL">
<path fill="#191917" stroke="none" d="&#10;M 358.45 63.1&#10;L 347 63.1 337.8 82.5 328.7 63.1 317.3 63.1 332.55 91.65 332.55 106.6 342.95 106.6 342.95 91.75 358.45 63.1 Z"/>
</g>
</defs>

<g id="el_mqxqyX3VZ6_an_DGqZvtpEh" data-animator-group="true" data-animator-type="0"><g id="el_mqxqyX3VZ6">
<g id="el_v5W3tR85uD">
<use xlink:href="#Symbol_2_0_Layer0_0_FILL" id="el_OcBQa-Ibw-"/>
</g>

<g id="el_o4auLqbUxl">
<use xlink:href="#Symbol_2_0_Layer0_1_FILL" id="el_yhnvbXK0Om"/>
</g>

<g id="el_QELk9wMz0L">
<use xlink:href="#Symbol_2_0_Layer0_2_FILL" id="el_Dgp2zJlGyG"/>
</g>

<g id="el_t01dDsD_Si">
<use xlink:href="#Symbol_2_0_Layer0_3_FILL" id="el_-L41hJFwnS"/>
</g>

<g id="el_YQ-WhEqyiB">
<use xlink:href="#Symbol_2_0_Layer0_4_FILL" id="el_2OkRVFo3S3"/>
</g>

<g id="el_0AahjtcEQQ">
<use xlink:href="#Symbol_2_0_Layer0_5_FILL" id="el_VKYINc9jRC"/>
</g>

<g id="el_Jttqx3bSyy">
<use xlink:href="#Symbol_2_0_Layer0_6_FILL" id="el_VT3NgUgoaT"/>
</g>

<g id="el_CR7HrRRZcu3">
<mask id="Mask_Mask_1">
<g transform="matrix( 1, 0, 0, 1, 0,0) ">
<use xlink:href="#Mask_RZ_Datagerry_RGB_svg_Ebene_1__Clip_Group__0_2_MASK_0_FILL"/>
</g>
</mask>

<g mask="url(#Mask_Mask_1)" id="el_JVejTIeBCHS">
<g id="el_5euVJ70V1ij">
<use xlink:href="#RZ_Datagerry_RGB_svg_Ebene_1__Clip_Group__0_Layer2_0_MEMBER_0_FILL" id="el_IliiDMS6l7Q"/>
</g>
</g>
</g>

<g id="el_iqapRgJdVAm">
<use xlink:href="#Symbol_2_0_Layer0_8_FILL" id="el_rJruYMjjZCF"/>
</g>
</g></g>

<g id="el_LsXDkQyBNey_an_m9zW8O8vP" data-animator-group="true" data-animator-type="0"><g id="el_LsXDkQyBNey">
<g id="el__2iNF0-r-8M">
<use xlink:href="#Data_0_Layer0_0_FILL" id="el_CqYrY0-7DIf"/>
</g>

<g id="el_i-IKVUcu_bz">
<use xlink:href="#Data_0_Layer0_1_FILL" id="el_2XbzQVBMX2p"/>
</g>

<g id="el_yWfYmLx2YTl">
<use xlink:href="#Data_0_Layer0_2_FILL" id="el_-4_oat0tTPP"/>
</g>

<g id="el_TEKOBqjaZxA">
<use xlink:href="#Data_0_Layer0_3_FILL" id="el_SDB_rgE01xD"/>
</g>
</g></g>

<g id="el_7uMV5uh5Z9r_an_0v4sU9_lv" data-animator-group="true" data-animator-type="0"><g id="el_7uMV5uh5Z9r">
<g id="el_MvJYX7zg3X-">
<use xlink:href="#Symbol_1_0_Layer0_0_FILL" id="el_PesPLKRnQtG"/>
</g>

<g id="el_i73EbYzukoL">
<use xlink:href="#Symbol_1_0_Layer0_1_FILL" id="el_BrokO4YsYQg"/>
</g>

<g id="el_17-wspyxQNn">
<use xlink:href="#Symbol_1_0_Layer0_2_FILL" id="el_fcNMeXGVQRK"/>
</g>

<g id="el_UPQ2ii5wCEY">
<use xlink:href="#Symbol_1_0_Layer0_3_FILL" id="el__BifwOeu3PV"/>
</g>

<g id="el_nMo0PtTDTCq">
<use xlink:href="#Symbol_1_0_Layer0_4_FILL" id="el_K0CysSb18gp"/>
</g>
</g></g>
</svg>