<svg id="Ebene_1" data-name="Ebene 1" xmlns="http://www.w3.org/2000/svg" xmlns:xlink="http://www.w3.org/1999/xlink" viewBox="0 0 358.47 106.94"><defs><style>.cls-1{fill:none;}.cls-2{fill:#fff;}.cls-3{fill:#171715;}.cls-4{clip-path:url(#clip-path);}.cls-5{fill:url(#Unbenannter_Verlauf_12);}</style><clipPath id="clip-path" transform="translate(-119.04 -27.09)"><path class="cls-1" d="M293.6,81h0A26.94,26.94,0,0,0,266.67,54V81h0v26.93A26.93,26.93,0,0,1,293.6,81Z"/></clipPath><radialGradient id="Unbenannter_Verlauf_12" cx="174.57" cy="51.87" r="11.54" gradientUnits="userSpaceOnUse"><stop offset="0" stop-color="#fff"/><stop offset="0.23" stop-color="#fff" stop-opacity="0.71"/><stop offset="0.54" stop-color="#fff" stop-opacity="0.33"/><stop offset="0.76" stop-color="#fff" stop-opacity="0.09"/><stop offset="0.87" stop-color="#fff" stop-opacity="0"/></radialGradient></defs><title>RZ_Datagerry_RGBweiß</title><path class="cls-2" d="M153.9,111.9a27.22,27.22,0,0,0-1.28-8.41,20,20,0,0,0-3.84-6.91,18,18,0,0,0-6.42-4.67,22.14,22.14,0,0,0-9-1.72H119v43.53h14.31a22.3,22.3,0,0,0,8.52-1.56,18.42,18.42,0,0,0,6.48-4.43,19.69,19.69,0,0,0,4.11-6.87A26.4,26.4,0,0,0,153.9,111.9Zm-20.55,19.38H121.66V92.63h11.69A19.41,19.41,0,0,1,141,94.07a15.93,15.93,0,0,1,5.64,4,17.19,17.19,0,0,1,3.46,6.1,24.54,24.54,0,0,1,1.17,7.74,25.26,25.26,0,0,1-1.14,7.71,17.21,17.21,0,0,1-3.4,6.15,15.89,15.89,0,0,1-5.61,4.06A19.39,19.39,0,0,1,133.35,131.28Z" transform="translate(-119.04 -27.09)"/><path class="cls-2" d="M170.82,90.19l-18.76,43.53h2.85l6.36-14.85h21.25l6.36,14.85h2.79L173,90.19Zm10.82,26.37H162.09l9.8-22.82Z" transform="translate(-119.04 -27.09)"/><polygon class="cls-2" points="101.16 63.1 66.3 63.1 66.3 65.54 82.42 65.54 82.42 106.63 85.04 106.63 85.04 65.54 101.16 65.54 101.16 63.1"/><path class="cls-2" d="M234.66,90.19h-2.15l-18.76,43.53h2.85L223,118.87h21.25l6.36,14.85h2.79Zm8.67,26.37H223.79l9.8-22.82Z" transform="translate(-119.04 -27.09)"/><path class="cls-2" d="M301.39,118.45h8.37v1c-3,3.47-6.48,5.24-10.24,5.24a10.45,10.45,0,0,1-8-3.58,12.41,12.41,0,0,1-2.32-4,15.06,15.06,0,0,1-.83-5.07,15.89,15.89,0,0,1,.77-5,13.23,13.23,0,0,1,2.2-4.08,10.39,10.39,0,0,1,3.4-2.72,10,10,0,0,1,4.41-1,11.49,11.49,0,0,1,5.84,1.57,10.45,10.45,0,0,1,4.12,4.41l.13.27,7.8-5.88-.09-.19a16.64,16.64,0,0,0-6.83-7,21.78,21.78,0,0,0-30.66,10.76,21.87,21.87,0,0,0-1.65,8.45,24.39,24.39,0,0,0,1.65,9.1,21.84,21.84,0,0,0,4.51,7.08,20.42,20.42,0,0,0,14.75,6.2,16.43,16.43,0,0,0,11.09-4.24v3.93h8.74v-23H301.39Z" transform="translate(-119.04 -27.09)"/><polygon class="cls-2" points="215.94 88.75 232.91 88.75 232.91 80.19 215.94 80.19 215.94 72.33 235.7 72.33 235.7 63.1 205.51 63.1 205.51 106.63 236.25 106.63 236.25 97.41 215.94 97.41 215.94 88.75"/><path class="cls-2" d="M390.63,115.44a13.35,13.35,0,0,0,2.26-3,15.42,15.42,0,0,0,1.42-3.54,15.81,15.81,0,0,0,.49-3.91,14.14,14.14,0,0,0-1.08-5.37,16.05,16.05,0,0,0-3-4.74,15.25,15.25,0,0,0-4.53-3.39,12.77,12.77,0,0,0-5.71-1.3H360.85v43.53h10.43V119.84h6.1l8.17,13.76.07.12h11.79l-9.55-16.16A13.39,13.39,0,0,0,390.63,115.44Zm-19.35-16h8.54a4,4,0,0,1,3,1.5,5.77,5.77,0,0,1,1.39,4.07,6.63,6.63,0,0,1-1.22,4.12,3.5,3.5,0,0,1-2.84,1.57h-8.84Z" transform="translate(-119.04 -27.09)"/><path class="cls-2" d="M431.24,115.44a13.31,13.31,0,0,0,2.25-3,15,15,0,0,0,1.42-3.54,15.35,15.35,0,0,0,.49-3.91,14.14,14.14,0,0,0-1.08-5.37,15.82,15.82,0,0,0-3-4.74,15.38,15.38,0,0,0-4.53-3.39,12.84,12.84,0,0,0-5.72-1.3H401.45v43.53h10.44V119.84H418l8.17,13.76.07.12H438l-9.55-16.16A13.39,13.39,0,0,0,431.24,115.44Zm-19.35-16h8.54a4,4,0,0,1,3,1.5,5.77,5.77,0,0,1,1.39,4.07,6.63,6.63,0,0,1-1.22,4.12,3.49,3.49,0,0,1-2.83,1.57h-8.84Z" transform="translate(-119.04 -27.09)"/><polygon class="cls-2" points="347.05 63.1 337.81 82.53 328.7 63.1 317.33 63.1 332.59 91.66 332.59 106.63 342.97 106.63 342.97 91.78 358.47 63.1 347.05 63.1"/><path class="cls-2" d="M274.07,55.07a7.4,7.4,0,0,0-7.4-7.41v7.41Z" transform="translate(-119.04 -27.09)"/><path class="cls-2" d="M266.67,54V81H293.6A26.94,26.94,0,0,0,266.67,54Z" transform="translate(-119.04 -27.09)"/><circle class="cls-3" cx="163.2" cy="42.33" r="2"/><path class="cls-2" d="M293.6,81H266.67v26.93A26.93,26.93,0,0,1,293.6,81Z" transform="translate(-119.04 -27.09)"/><path class="cls-2" d="M239.73,81a26.93,26.93,0,0,0,26.94,26.93V81Z" transform="translate(-119.04 -27.09)"/><path class="cls-2" d="M212.8,54A26.94,26.94,0,0,0,239.73,81V54Z" transform="translate(-119.04 -27.09)"/><path class="cls-2" d="M239.73,54A26.93,26.93,0,0,0,212.8,27.09V54Z" transform="translate(-119.04 -27.09)"/><g class="cls-4"><circle class="cls-5" cx="174.57" cy="51.87" r="11.54"/></g><circle class="cls-2" cx="174.57" cy="51.86" r="2"/></svg>