<svg id="Ebene_1" data-name="Ebene 1" xmlns="http://www.w3.org/2000/svg" xmlns:xlink="http://www.w3.org/1999/xlink" viewBox="0 0 358.47 106.94"><defs><style>.cls-1{fill:none;}.cls-2{fill:#191918;}.cls-3{fill:#191917;}.cls-4{fill:url(#Unbenannter_Verlauf_4);}.cls-5{fill:#1a1a18;}.cls-6{fill:url(#Unbenannter_Verlauf_4-2);}.cls-7{fill:url(#Unbenannter_Verlauf_4-3);}.cls-8{fill:url(#Unbenannter_Verlauf_4-4);}.cls-9{fill:url(#Unbenannter_Verlauf_4-5);}.cls-10{clip-path:url(#clip-path);}.cls-11{fill:url(#Unbenannter_Verlauf_12);}</style><linearGradient id="Unbenannter_Verlauf_4" x1="290.82" y1="47.79" x2="237.11" y2="100.16" gradientUnits="userSpaceOnUse"><stop offset="0" stop-color="#fbba00"/><stop offset="1" stop-color="#e94c15"/></linearGradient><linearGradient id="Unbenannter_Verlauf_4-2" x1="297.72" y1="54.86" x2="244.01" y2="107.24" xlink:href="#Unbenannter_Verlauf_4"/><linearGradient id="Unbenannter_Verlauf_4-3" x1="291.15" y1="48.13" x2="237.45" y2="100.51" xlink:href="#Unbenannter_Verlauf_4"/><linearGradient id="Unbenannter_Verlauf_4-4" x1="251.23" y1="21.63" x2="217.19" y2="71.51" xlink:href="#Unbenannter_Verlauf_4"/><linearGradient id="Unbenannter_Verlauf_4-5" x1="238.69" y1="13.07" x2="204.65" y2="62.96" xlink:href="#Unbenannter_Verlauf_4"/><clipPath id="clip-path" transform="translate(-119.04 -17.81)"><path class="cls-1" d="M293.6,71.67h0a26.93,26.93,0,0,0-26.93-26.93V71.67h0V98.61A26.93,26.93,0,0,1,293.6,71.68h0Z"/></clipPath><radialGradient id="Unbenannter_Verlauf_12" cx="174.57" cy="51.87" r="11.54" gradientUnits="userSpaceOnUse"><stop offset="0" stop-color="#fff"/><stop offset="0.23" stop-color="#fff" stop-opacity="0.71"/><stop offset="0.54" stop-color="#fff" stop-opacity="0.33"/><stop offset="0.76" stop-color="#fff" stop-opacity="0.09"/><stop offset="0.87" stop-color="#fff" stop-opacity="0"/></radialGradient></defs><title>RZ_Datagerry_RGB</title><path class="cls-2" d="M153.9,102.61a27.22,27.22,0,0,0-1.28-8.41,20.06,20.06,0,0,0-3.84-6.9,18,18,0,0,0-6.42-4.67,22.14,22.14,0,0,0-9-1.72H119v43.53h14.31a22.3,22.3,0,0,0,8.52-1.57,18.4,18.4,0,0,0,6.48-4.42,19.79,19.79,0,0,0,4.11-6.87A26.46,26.46,0,0,0,153.9,102.61ZM133.35,122H121.66V83.35h11.69A19.41,19.41,0,0,1,141,84.78a16,16,0,0,1,5.64,4,17.06,17.06,0,0,1,3.46,6.09,24.58,24.58,0,0,1,1.17,7.74,25.17,25.17,0,0,1-1.14,7.71,17.34,17.34,0,0,1-3.4,6.16,15.87,15.87,0,0,1-5.61,4A19.21,19.21,0,0,1,133.35,122Z" transform="translate(-119.04 -17.81)"/><path class="cls-2" d="M170.82,80.91l-18.76,43.53h2.85l6.36-14.85h21.25l6.36,14.85h2.79L173,80.91Zm10.82,26.36H162.09l9.8-22.81Z" transform="translate(-119.04 -17.81)"/><polygon class="cls-2" points="101.16 63.1 66.3 63.1 66.3 65.54 82.42 65.54 82.42 106.63 85.04 106.63 85.04 65.54 101.16 65.54 101.16 63.1"/><path class="cls-2" d="M234.66,80.91h-2.15l-18.76,43.53h2.85L223,109.59h21.25l6.36,14.85h2.79Zm8.67,26.36H223.79l9.8-22.81Z" transform="translate(-119.04 -17.81)"/><path class="cls-3" d="M301.39,109.17h8.37v1c-3,3.47-6.48,5.23-10.24,5.23a10.83,10.83,0,0,1-4.53-.94,10.63,10.63,0,0,1-3.52-2.64,12.21,12.21,0,0,1-2.32-4,15,15,0,0,1-.83-5.07,15.94,15.94,0,0,1,.77-5,13.07,13.07,0,0,1,2.2-4.07,10.26,10.26,0,0,1,3.4-2.72,9.85,9.85,0,0,1,4.41-1,11.4,11.4,0,0,1,5.84,1.58,10.39,10.39,0,0,1,4.12,4.41l.13.27,7.8-5.89-.09-.18a16.72,16.72,0,0,0-6.83-7,23,23,0,0,0-19.19-.83,21.61,21.61,0,0,0-13.12,20.05,24.3,24.3,0,0,0,1.65,9.09,21.62,21.62,0,0,0,4.51,7.08,20,20,0,0,0,6.66,4.57,20.41,20.41,0,0,0,8.09,1.63,16.42,16.42,0,0,0,11.09-4.23v3.93h8.74v-23H301.39Z" transform="translate(-119.04 -17.81)"/><polygon class="cls-3" points="215.94 88.75 232.91 88.75 232.91 80.19 215.94 80.19 215.94 72.33 235.7 72.33 235.7 63.1 205.51 63.1 205.51 106.63 236.25 106.63 236.25 97.41 215.94 97.41 215.94 88.75"/><path class="cls-3" d="M390.63,106.15a13.52,13.52,0,0,0,2.26-3,15.6,15.6,0,0,0,1.42-3.54,15.83,15.83,0,0,0,.49-3.92,14.09,14.09,0,0,0-1.08-5.36,15.92,15.92,0,0,0-3-4.74,14.92,14.92,0,0,0-4.53-3.39,12.77,12.77,0,0,0-5.71-1.3H360.85v43.53h10.43V110.56h6.1l8.17,13.76.07.12h11.79l-9.55-16.16A13.43,13.43,0,0,0,390.63,106.15Zm-19.35-16h8.54a4.06,4.06,0,0,1,3,1.49,5.81,5.81,0,0,1,1.39,4.07A6.61,6.61,0,0,1,383,99.82a3.48,3.48,0,0,1-2.84,1.57h-8.84Z" transform="translate(-119.04 -17.81)"/><path class="cls-3" d="M431.24,106.15a13.48,13.48,0,0,0,2.25-3,15.15,15.15,0,0,0,1.42-3.54,15.37,15.37,0,0,0,.49-3.92,14.09,14.09,0,0,0-1.08-5.36,15.7,15.7,0,0,0-3-4.74,15,15,0,0,0-4.53-3.39,12.84,12.84,0,0,0-5.72-1.3H401.45v43.53h10.44V110.56H418l8.17,13.76.07.12H438l-9.55-16.16A13.43,13.43,0,0,0,431.24,106.15Zm-19.35-16h8.54a4,4,0,0,1,3,1.49,5.81,5.81,0,0,1,1.39,4.07,6.61,6.61,0,0,1-1.22,4.12,3.46,3.46,0,0,1-2.83,1.57h-8.84Z" transform="translate(-119.04 -17.81)"/><polygon class="cls-3" points="347.05 63.1 337.81 82.53 328.7 63.1 317.33 63.1 332.59 91.66 332.59 106.63 342.97 106.63 342.97 91.78 358.47 63.1 347.05 63.1"/><path class="cls-3" d="M274.07,45.78a7.4,7.4,0,0,0-7.4-7.4v7.4Z" transform="translate(-119.04 -17.81)"/><path class="cls-4" d="M266.67,44.74V71.68H293.6A26.94,26.94,0,0,0,266.67,44.74Z" transform="translate(-119.04 -17.81)"/><circle class="cls-5" cx="163.2" cy="42.33" r="2"/><path class="cls-6" d="M293.6,71.67H266.67V98.61A26.94,26.94,0,0,1,293.6,71.67Z" transform="translate(-119.04 -17.81)"/><path class="cls-7" d="M239.73,71.68a26.94,26.94,0,0,0,26.94,26.93V71.68Z" transform="translate(-119.04 -17.81)"/><path class="cls-8" d="M212.8,44.74a26.94,26.94,0,0,0,26.93,26.94V44.74Z" transform="translate(-119.04 -17.81)"/><path class="cls-9" d="M239.73,44.74A26.92,26.92,0,0,0,212.8,17.81V44.74Z" transform="translate(-119.04 -17.81)"/><g class="cls-10"><circle class="cls-11" cx="174.57" cy="51.87" r="11.54"/></g><circle class="cls-5" cx="174.57" cy="51.86" r="2"/></svg>